<?xml version="1.0" encoding="UTF-8"?>
<svg width="1214px" height="941px" viewBox="0 0 1214 941" version="1.1" xmlns="http://www.w3.org/2000/svg" xmlns:xlink="http://www.w3.org/1999/xlink">
    <title>Binomial PMF vs CDF Range </title>
    <g id="Binomial-PMF-vs-CDF-Range-" stroke="none" stroke-width="1" fill="none" fill-rule="evenodd">
        <g id="Group-3" transform="translate(290.693000, 213.166000)">
            <g id="Grid" transform="translate(73.348305, 0.834000)"></g>
            <g id="Group-5" transform="translate(82.861000, 404.834000)" fill="#FFFFFF" fill-rule="nonzero">
                <path d="M4.446,34.144 C5.898,34.144 7.002,33.592 7.758,32.488 C8.514,31.384 8.892,29.77 8.892,27.646 C8.892,25.522 8.514,23.911 7.758,22.813 C7.002,21.715 5.898,21.166 4.446,21.166 C2.994,21.166 1.89,21.718 1.134,22.822 C0.378,23.926 7.10542736e-15,25.54 7.10542736e-15,27.664 C7.10542736e-15,29.776 0.378,31.384 1.134,32.488 C1.89,33.592 2.994,34.144 4.446,34.144 Z M4.446,32.902 C3.438,32.902 2.694,32.476 2.214,31.624 C1.734,30.772 1.494,29.446 1.494,27.646 C1.494,25.846 1.734,24.526 2.214,23.686 C2.694,22.846 3.438,22.426 4.446,22.426 C5.466,22.426 6.213,22.843 6.687,23.677 C7.161,24.511 7.398,25.834 7.398,27.646 C7.398,29.446 7.158,30.772 6.678,31.624 C6.198,32.476 5.454,32.902 4.446,32.902 Z" id="0"></path>
                <path d="M8.48730458,2 C9.59187408,2 10.4873046,2.8954305 10.4873046,4 C10.4873046,5.0543618 9.67142679,5.91816512 8.63656693,5.99451426 L8.48730458,6 L0.487304581,6 C-0.617264918,6 -1.51269542,5.1045695 -1.51269542,4 C-1.51269542,2.9456382 -0.696817628,2.08183488 0.338042236,2.00548574 L0.487304581,2 L8.48730458,2 Z" id="1" transform="translate(4.487305, 4.000000) rotate(-90.000000) translate(-4.487305, -4.000000) "></path>
            </g>
            <g id="Group-6-Copy-2" fill="#FFFFFF" fill-rule="nonzero">
                <path d="M4.446,12.978 C5.898,12.978 7.002,12.426 7.758,11.322 C8.514,10.218 8.892,8.604 8.892,6.48 C8.892,4.356 8.514,2.745 7.758,1.647 C7.002,0.549 5.898,0 4.446,0 C2.994,0 1.89,0.552 1.134,1.656 C0.378,2.76 0,4.374 0,6.498 C0,8.61 0.378,10.218 1.134,11.322 C1.89,12.426 2.994,12.978 4.446,12.978 Z M4.446,11.736 C3.438,11.736 2.694,11.31 2.214,10.458 C1.734,9.606 1.494,8.28 1.494,6.48 C1.494,4.68 1.734,3.36 2.214,2.52 C2.694,1.68 3.438,1.26 4.446,1.26 C5.466,1.26 6.213,1.677 6.687,2.511 C7.161,3.345 7.398,4.668 7.398,6.48 C7.398,8.28 7.158,9.606 6.678,10.458 C6.198,11.31 5.454,11.736 4.446,11.736 Z M12.816,12.834 L12.816,10.998 L10.98,10.998 L10.98,12.834 L12.816,12.834 Z M23.67,12.834 L23.67,11.592 L17.406,11.592 L21.006,7.686 C21.762,6.858 22.305,6.108 22.635,5.436 C22.965,4.764 23.13,4.062 23.13,3.33 C23.13,2.31 22.791,1.5 22.113,0.9 C21.435,0.3 20.514,0 19.35,0 C18.582,0 17.817,0.141 17.055,0.423 C16.293,0.705 15.66,1.086 15.156,1.566 L15.156,1.566 L15.714,2.7 C16.89,1.728 18.09,1.242 19.314,1.242 C20.058,1.242 20.634,1.428 21.042,1.8 C21.45,2.172 21.654,2.706 21.654,3.402 C21.654,3.942 21.519,4.479 21.249,5.013 C20.979,5.547 20.544,6.15 19.944,6.822 L19.944,6.822 L15.498,11.718 L15.498,12.834 L23.67,12.834 Z M30.366,12.96 C31.23,12.96 31.986,12.789 32.634,12.447 C33.282,12.105 33.783,11.628 34.137,11.016 C34.491,10.404 34.668,9.696 34.668,8.892 C34.668,8.1 34.506,7.401 34.182,6.795 C33.858,6.189 33.399,5.718 32.805,5.382 C32.211,5.046 31.512,4.878 30.708,4.878 C30.168,4.878 29.667,4.965 29.205,5.139 C28.743,5.313 28.344,5.562 28.008,5.886 L28.008,5.886 L28.008,1.368 L34.164,1.368 L34.164,0.144 L26.55,0.144 L26.55,7.578 L27.576,7.578 C28.296,6.594 29.262,6.102 30.474,6.102 C31.302,6.102 31.965,6.36 32.463,6.876 C32.961,7.392 33.21,8.07 33.21,8.91 C33.21,9.774 32.958,10.458 32.454,10.962 C31.95,11.466 31.254,11.718 30.366,11.718 C29.13,11.718 27.924,11.232 26.748,10.26 L26.748,10.26 L26.19,11.394 C26.706,11.874 27.339,12.255 28.089,12.537 C28.839,12.819 29.598,12.96 30.366,12.96 Z" id="0.25"></path>
                <path d="M53.3483046,4.834 C54.4528741,4.834 55.3483046,5.7294305 55.3483046,6.834 C55.3483046,7.8883618 54.5324268,8.75216512 53.4975669,8.82851426 L53.3483046,8.834 L45.3483046,8.834 C44.2437351,8.834 43.3483046,7.9385695 43.3483046,6.834 C43.3483046,5.7796382 44.1641824,4.91583488 45.1990422,4.83948574 L45.3483046,4.834 L53.3483046,4.834 Z" id="1"></path>
            </g>
            <g id="Group-6-Copy-3" transform="translate(0.000000, 78.000000)" fill="#FFFFFF" fill-rule="nonzero">
                <path d="M4.446,12.978 C5.898,12.978 7.002,12.426 7.758,11.322 C8.514,10.218 8.892,8.604 8.892,6.48 C8.892,4.356 8.514,2.745 7.758,1.647 C7.002,0.549 5.898,0 4.446,0 C2.994,0 1.89,0.552 1.134,1.656 C0.378,2.76 0,4.374 0,6.498 C0,8.61 0.378,10.218 1.134,11.322 C1.89,12.426 2.994,12.978 4.446,12.978 Z M4.446,11.736 C3.438,11.736 2.694,11.31 2.214,10.458 C1.734,9.606 1.494,8.28 1.494,6.48 C1.494,4.68 1.734,3.36 2.214,2.52 C2.694,1.68 3.438,1.26 4.446,1.26 C5.466,1.26 6.213,1.677 6.687,2.511 C7.161,3.345 7.398,4.668 7.398,6.48 C7.398,8.28 7.158,9.606 6.678,10.458 C6.198,11.31 5.454,11.736 4.446,11.736 Z M12.816,12.834 L12.816,10.998 L10.98,10.998 L10.98,12.834 L12.816,12.834 Z M23.67,12.834 L23.67,11.592 L17.406,11.592 L21.006,7.686 C21.762,6.858 22.305,6.108 22.635,5.436 C22.965,4.764 23.13,4.062 23.13,3.33 C23.13,2.31 22.791,1.5 22.113,0.9 C21.435,0.3 20.514,0 19.35,0 C18.582,0 17.817,0.141 17.055,0.423 C16.293,0.705 15.66,1.086 15.156,1.566 L15.156,1.566 L15.714,2.7 C16.89,1.728 18.09,1.242 19.314,1.242 C20.058,1.242 20.634,1.428 21.042,1.8 C21.45,2.172 21.654,2.706 21.654,3.402 C21.654,3.942 21.519,4.479 21.249,5.013 C20.979,5.547 20.544,6.15 19.944,6.822 L19.944,6.822 L15.498,11.718 L15.498,12.834 L23.67,12.834 Z M30.168,12.978 C31.62,12.978 32.724,12.426 33.48,11.322 C34.236,10.218 34.614,8.604 34.614,6.48 C34.614,4.356 34.236,2.745 33.48,1.647 C32.724,0.549 31.62,0 30.168,0 C28.716,0 27.612,0.552 26.856,1.656 C26.1,2.76 25.722,4.374 25.722,6.498 C25.722,8.61 26.1,10.218 26.856,11.322 C27.612,12.426 28.716,12.978 30.168,12.978 Z M30.168,11.736 C29.16,11.736 28.416,11.31 27.936,10.458 C27.456,9.606 27.216,8.28 27.216,6.48 C27.216,4.68 27.456,3.36 27.936,2.52 C28.416,1.68 29.16,1.26 30.168,1.26 C31.188,1.26 31.935,1.677 32.409,2.511 C32.883,3.345 33.12,4.668 33.12,6.48 C33.12,8.28 32.88,9.606 32.4,10.458 C31.92,11.31 31.176,11.736 30.168,11.736 Z" id="0.20"></path>
                <path d="M53.3483046,4.834 C54.4528741,4.834 55.3483046,5.7294305 55.3483046,6.834 C55.3483046,7.8883618 54.5324268,8.75216512 53.4975669,8.82851426 L53.3483046,8.834 L45.3483046,8.834 C44.2437351,8.834 43.3483046,7.9385695 43.3483046,6.834 C43.3483046,5.7796382 44.1641824,4.91583488 45.1990422,4.83948574 L45.3483046,4.834 L53.3483046,4.834 Z" id="1"></path>
            </g>
            <g id="Group-6-Copy-8" transform="translate(0.000000, 156.000000)" fill="#FFFFFF" fill-rule="nonzero">
                <path d="M4.446,12.978 C5.898,12.978 7.002,12.426 7.758,11.322 C8.514,10.218 8.892,8.604 8.892,6.48 C8.892,4.356 8.514,2.745 7.758,1.647 C7.002,0.549 5.898,0 4.446,0 C2.994,0 1.89,0.552 1.134,1.656 C0.378,2.76 0,4.374 0,6.498 C0,8.61 0.378,10.218 1.134,11.322 C1.89,12.426 2.994,12.978 4.446,12.978 Z M4.446,11.736 C3.438,11.736 2.694,11.31 2.214,10.458 C1.734,9.606 1.494,8.28 1.494,6.48 C1.494,4.68 1.734,3.36 2.214,2.52 C2.694,1.68 3.438,1.26 4.446,1.26 C5.466,1.26 6.213,1.677 6.687,2.511 C7.161,3.345 7.398,4.668 7.398,6.48 C7.398,8.28 7.158,9.606 6.678,10.458 C6.198,11.31 5.454,11.736 4.446,11.736 Z M12.816,12.834 L12.816,10.998 L10.98,10.998 L10.98,12.834 L12.816,12.834 Z M23.364,12.834 L23.364,11.592 L20.574,11.592 L20.574,0.144 L19.512,0.144 L16.182,2.25 L16.866,3.384 L19.098,1.98 L19.098,11.592 L16.308,11.592 L16.308,12.834 L23.364,12.834 Z M30.366,12.96 C31.23,12.96 31.986,12.789 32.634,12.447 C33.282,12.105 33.783,11.628 34.137,11.016 C34.491,10.404 34.668,9.696 34.668,8.892 C34.668,8.1 34.506,7.401 34.182,6.795 C33.858,6.189 33.399,5.718 32.805,5.382 C32.211,5.046 31.512,4.878 30.708,4.878 C30.168,4.878 29.667,4.965 29.205,5.139 C28.743,5.313 28.344,5.562 28.008,5.886 L28.008,5.886 L28.008,1.368 L34.164,1.368 L34.164,0.144 L26.55,0.144 L26.55,7.578 L27.576,7.578 C28.296,6.594 29.262,6.102 30.474,6.102 C31.302,6.102 31.965,6.36 32.463,6.876 C32.961,7.392 33.21,8.07 33.21,8.91 C33.21,9.774 32.958,10.458 32.454,10.962 C31.95,11.466 31.254,11.718 30.366,11.718 C29.13,11.718 27.924,11.232 26.748,10.26 L26.748,10.26 L26.19,11.394 C26.706,11.874 27.339,12.255 28.089,12.537 C28.839,12.819 29.598,12.96 30.366,12.96 Z" id="0.15"></path>
                <path d="M53.3483046,4.834 C54.4528741,4.834 55.3483046,5.7294305 55.3483046,6.834 C55.3483046,7.8883618 54.5324268,8.75216512 53.4975669,8.82851426 L53.3483046,8.834 L45.3483046,8.834 C44.2437351,8.834 43.3483046,7.9385695 43.3483046,6.834 C43.3483046,5.7796382 44.1641824,4.91583488 45.1990422,4.83948574 L45.3483046,4.834 L53.3483046,4.834 Z" id="1"></path>
            </g>
            <g id="Group-6-Copy-4" transform="translate(0.000000, 236.000000)" fill="#FFFFFF" fill-rule="nonzero">
                <path d="M4.446,12.978 C5.898,12.978 7.002,12.426 7.758,11.322 C8.514,10.218 8.892,8.604 8.892,6.48 C8.892,4.356 8.514,2.745 7.758,1.647 C7.002,0.549 5.898,0 4.446,0 C2.994,0 1.89,0.552 1.134,1.656 C0.378,2.76 0,4.374 0,6.498 C0,8.61 0.378,10.218 1.134,11.322 C1.89,12.426 2.994,12.978 4.446,12.978 Z M4.446,11.736 C3.438,11.736 2.694,11.31 2.214,10.458 C1.734,9.606 1.494,8.28 1.494,6.48 C1.494,4.68 1.734,3.36 2.214,2.52 C2.694,1.68 3.438,1.26 4.446,1.26 C5.466,1.26 6.213,1.677 6.687,2.511 C7.161,3.345 7.398,4.668 7.398,6.48 C7.398,8.28 7.158,9.606 6.678,10.458 C6.198,11.31 5.454,11.736 4.446,11.736 Z M12.816,12.834 L12.816,10.998 L10.98,10.998 L10.98,12.834 L12.816,12.834 Z M23.364,12.834 L23.364,11.592 L20.574,11.592 L20.574,0.144 L19.512,0.144 L16.182,2.25 L16.866,3.384 L19.098,1.98 L19.098,11.592 L16.308,11.592 L16.308,12.834 L23.364,12.834 Z M30.168,12.978 C31.62,12.978 32.724,12.426 33.48,11.322 C34.236,10.218 34.614,8.604 34.614,6.48 C34.614,4.356 34.236,2.745 33.48,1.647 C32.724,0.549 31.62,0 30.168,0 C28.716,0 27.612,0.552 26.856,1.656 C26.1,2.76 25.722,4.374 25.722,6.498 C25.722,8.61 26.1,10.218 26.856,11.322 C27.612,12.426 28.716,12.978 30.168,12.978 Z M30.168,11.736 C29.16,11.736 28.416,11.31 27.936,10.458 C27.456,9.606 27.216,8.28 27.216,6.48 C27.216,4.68 27.456,3.36 27.936,2.52 C28.416,1.68 29.16,1.26 30.168,1.26 C31.188,1.26 31.935,1.677 32.409,2.511 C32.883,3.345 33.12,4.668 33.12,6.48 C33.12,8.28 32.88,9.606 32.4,10.458 C31.92,11.31 31.176,11.736 30.168,11.736 Z" id="0.10"></path>
                <path d="M53.3483046,4.834 C54.4528741,4.834 55.3483046,5.7294305 55.3483046,6.834 C55.3483046,7.8883618 54.5324268,8.75216512 53.4975669,8.82851426 L53.3483046,8.834 L45.3483046,8.834 C44.2437351,8.834 43.3483046,7.9385695 43.3483046,6.834 C43.3483046,5.7796382 44.1641824,4.91583488 45.1990422,4.83948574 L45.3483046,4.834 L53.3483046,4.834 Z" id="1"></path>
            </g>
            <g id="Group-6-Copy-7" transform="translate(0.000000, 314.000000)" fill="#FFFFFF" fill-rule="nonzero">
                <path d="M4.446,12.978 C5.898,12.978 7.002,12.426 7.758,11.322 C8.514,10.218 8.892,8.604 8.892,6.48 C8.892,4.356 8.514,2.745 7.758,1.647 C7.002,0.549 5.898,0 4.446,0 C2.994,0 1.89,0.552 1.134,1.656 C0.378,2.76 0,4.374 0,6.498 C0,8.61 0.378,10.218 1.134,11.322 C1.89,12.426 2.994,12.978 4.446,12.978 Z M4.446,11.736 C3.438,11.736 2.694,11.31 2.214,10.458 C1.734,9.606 1.494,8.28 1.494,6.48 C1.494,4.68 1.734,3.36 2.214,2.52 C2.694,1.68 3.438,1.26 4.446,1.26 C5.466,1.26 6.213,1.677 6.687,2.511 C7.161,3.345 7.398,4.668 7.398,6.48 C7.398,8.28 7.158,9.606 6.678,10.458 C6.198,11.31 5.454,11.736 4.446,11.736 Z M12.816,12.834 L12.816,10.998 L10.98,10.998 L10.98,12.834 L12.816,12.834 Z M19.368,12.978 C20.82,12.978 21.924,12.426 22.68,11.322 C23.436,10.218 23.814,8.604 23.814,6.48 C23.814,4.356 23.436,2.745 22.68,1.647 C21.924,0.549 20.82,0 19.368,0 C17.916,0 16.812,0.552 16.056,1.656 C15.3,2.76 14.922,4.374 14.922,6.498 C14.922,8.61 15.3,10.218 16.056,11.322 C16.812,12.426 17.916,12.978 19.368,12.978 Z M19.368,11.736 C18.36,11.736 17.616,11.31 17.136,10.458 C16.656,9.606 16.416,8.28 16.416,6.48 C16.416,4.68 16.656,3.36 17.136,2.52 C17.616,1.68 18.36,1.26 19.368,1.26 C20.388,1.26 21.135,1.677 21.609,2.511 C22.083,3.345 22.32,4.668 22.32,6.48 C22.32,8.28 22.08,9.606 21.6,10.458 C21.12,11.31 20.376,11.736 19.368,11.736 Z M30.366,12.96 C31.23,12.96 31.986,12.789 32.634,12.447 C33.282,12.105 33.783,11.628 34.137,11.016 C34.491,10.404 34.668,9.696 34.668,8.892 C34.668,8.1 34.506,7.401 34.182,6.795 C33.858,6.189 33.399,5.718 32.805,5.382 C32.211,5.046 31.512,4.878 30.708,4.878 C30.168,4.878 29.667,4.965 29.205,5.139 C28.743,5.313 28.344,5.562 28.008,5.886 L28.008,5.886 L28.008,1.368 L34.164,1.368 L34.164,0.144 L26.55,0.144 L26.55,7.578 L27.576,7.578 C28.296,6.594 29.262,6.102 30.474,6.102 C31.302,6.102 31.965,6.36 32.463,6.876 C32.961,7.392 33.21,8.07 33.21,8.91 C33.21,9.774 32.958,10.458 32.454,10.962 C31.95,11.466 31.254,11.718 30.366,11.718 C29.13,11.718 27.924,11.232 26.748,10.26 L26.748,10.26 L26.19,11.394 C26.706,11.874 27.339,12.255 28.089,12.537 C28.839,12.819 29.598,12.96 30.366,12.96 Z" id="0.05"></path>
                <path d="M53.3483046,4.834 C54.4528741,4.834 55.3483046,5.7294305 55.3483046,6.834 C55.3483046,7.8883618 54.5324268,8.75216512 53.4975669,8.82851426 L53.3483046,8.834 L45.3483046,8.834 C44.2437351,8.834 43.3483046,7.9385695 43.3483046,6.834 C43.3483046,5.7796382 44.1641824,4.91583488 45.1990422,4.83948574 L45.3483046,4.834 L53.3483046,4.834 Z" id="1"></path>
            </g>
            <g id="Group-6-Copy-5" transform="translate(0.000000, 392.000000)" fill="#FFFFFF" fill-rule="nonzero">
                <path d="M4.446,12.978 C5.898,12.978 7.002,12.426 7.758,11.322 C8.514,10.218 8.892,8.604 8.892,6.48 C8.892,4.356 8.514,2.745 7.758,1.647 C7.002,0.549 5.898,0 4.446,0 C2.994,0 1.89,0.552 1.134,1.656 C0.378,2.76 0,4.374 0,6.498 C0,8.61 0.378,10.218 1.134,11.322 C1.89,12.426 2.994,12.978 4.446,12.978 Z M4.446,11.736 C3.438,11.736 2.694,11.31 2.214,10.458 C1.734,9.606 1.494,8.28 1.494,6.48 C1.494,4.68 1.734,3.36 2.214,2.52 C2.694,1.68 3.438,1.26 4.446,1.26 C5.466,1.26 6.213,1.677 6.687,2.511 C7.161,3.345 7.398,4.668 7.398,6.48 C7.398,8.28 7.158,9.606 6.678,10.458 C6.198,11.31 5.454,11.736 4.446,11.736 Z M12.816,12.834 L12.816,10.998 L10.98,10.998 L10.98,12.834 L12.816,12.834 Z M19.368,12.978 C20.82,12.978 21.924,12.426 22.68,11.322 C23.436,10.218 23.814,8.604 23.814,6.48 C23.814,4.356 23.436,2.745 22.68,1.647 C21.924,0.549 20.82,0 19.368,0 C17.916,0 16.812,0.552 16.056,1.656 C15.3,2.76 14.922,4.374 14.922,6.498 C14.922,8.61 15.3,10.218 16.056,11.322 C16.812,12.426 17.916,12.978 19.368,12.978 Z M19.368,11.736 C18.36,11.736 17.616,11.31 17.136,10.458 C16.656,9.606 16.416,8.28 16.416,6.48 C16.416,4.68 16.656,3.36 17.136,2.52 C17.616,1.68 18.36,1.26 19.368,1.26 C20.388,1.26 21.135,1.677 21.609,2.511 C22.083,3.345 22.32,4.668 22.32,6.48 C22.32,8.28 22.08,9.606 21.6,10.458 C21.12,11.31 20.376,11.736 19.368,11.736 Z M30.168,12.978 C31.62,12.978 32.724,12.426 33.48,11.322 C34.236,10.218 34.614,8.604 34.614,6.48 C34.614,4.356 34.236,2.745 33.48,1.647 C32.724,0.549 31.62,0 30.168,0 C28.716,0 27.612,0.552 26.856,1.656 C26.1,2.76 25.722,4.374 25.722,6.498 C25.722,8.61 26.1,10.218 26.856,11.322 C27.612,12.426 28.716,12.978 30.168,12.978 Z M30.168,11.736 C29.16,11.736 28.416,11.31 27.936,10.458 C27.456,9.606 27.216,8.28 27.216,6.48 C27.216,4.68 27.456,3.36 27.936,2.52 C28.416,1.68 29.16,1.26 30.168,1.26 C31.188,1.26 31.935,1.677 32.409,2.511 C32.883,3.345 33.12,4.668 33.12,6.48 C33.12,8.28 32.88,9.606 32.4,10.458 C31.92,11.31 31.176,11.736 30.168,11.736 Z" id="0.00"></path>
                <path d="M53.3483046,4.834 C54.4528741,4.834 55.3483046,5.7294305 55.3483046,6.834 C55.3483046,7.8883618 54.5324268,8.75216512 53.4975669,8.82851426 L53.3483046,8.834 L45.3483046,8.834 C44.2437351,8.834 43.3483046,7.9385695 43.3483046,6.834 C43.3483046,5.7796382 44.1641824,4.91583488 45.1990422,4.83948574 L45.3483046,4.834 L53.3483046,4.834 Z" id="1"></path>
            </g>
            <g id="Group-4" transform="translate(134.121000, 404.834000)" fill="#FFFFFF" fill-rule="nonzero">
                <polygon id="1" points="7.182 34 7.182 32.758 4.392 32.758 4.392 21.31 3.33 21.31 7.10542736e-15 23.416 0.684 24.55 2.916 23.146 2.916 32.758 0.126 32.758 0.126 34"></polygon>
                <path d="M7.22730458,2 C8.33187408,2 9.22730458,2.8954305 9.22730458,4 C9.22730458,5.0543618 8.41142679,5.91816512 7.37656693,5.99451426 L7.22730458,6 L-0.772695419,6 C-1.87726492,6 -2.77269542,5.1045695 -2.77269542,4 C-2.77269542,2.9456382 -1.95681763,2.08183488 -0.921957764,2.00548574 L-0.772695419,2 L7.22730458,2 Z" id="4" transform="translate(3.227305, 4.000000) rotate(-90.000000) translate(-3.227305, -4.000000) "></path>
            </g>
            <g id="Group-4-Copy-2" transform="translate(392.924000, 404.834000)" fill="#FFFFFF" fill-rule="nonzero">
                <path d="M4.806,34.144 C5.586,34.144 6.288,33.97 6.912,33.622 C7.536,33.274 8.022,32.788 8.37,32.164 C8.718,31.54 8.892,30.838 8.892,30.058 C8.892,29.266 8.724,28.564 8.388,27.952 C8.052,27.34 7.584,26.866 6.984,26.53 C6.384,26.194 5.7,26.026 4.932,26.026 C4.128,26.026 3.42,26.224 2.808,26.62 C2.196,27.016 1.752,27.55 1.476,28.222 L1.476,28.222 L1.476,27.952 C1.476,26.188 1.779,24.823 2.385,23.857 C2.991,22.891 3.84,22.408 4.932,22.408 C5.496,22.408 6.051,22.525 6.597,22.759 C7.143,22.993 7.716,23.362 8.316,23.866 L8.316,23.866 L8.874,22.732 C8.346,22.228 7.734,21.841 7.038,21.571 C6.342,21.301 5.628,21.166 4.896,21.166 C3.876,21.166 3,21.433 2.268,21.967 C1.536,22.501 0.975,23.278 0.585,24.298 C0.195,25.318 5.68434189e-14,26.542 5.68434189e-14,27.97 C5.68434189e-14,29.95 0.417,31.474 1.251,32.542 C2.085,33.61 3.27,34.144 4.806,34.144 Z M4.734,32.902 C3.894,32.902 3.213,32.641 2.691,32.119 C2.169,31.597 1.908,30.916 1.908,30.076 C1.908,29.248 2.169,28.573 2.691,28.051 C3.213,27.529 3.888,27.268 4.716,27.268 C5.532,27.268 6.189,27.526 6.687,28.042 C7.185,28.558 7.434,29.236 7.434,30.076 C7.434,30.928 7.188,31.612 6.696,32.128 C6.204,32.644 5.55,32.902 4.734,32.902 Z" id="6"></path>
                <path d="M8.42430458,2 C9.52887408,2 10.4243046,2.8954305 10.4243046,4 C10.4243046,5.0543618 9.60842679,5.91816512 8.57356693,5.99451426 L8.42430458,6 L0.424304581,6 C-0.680264918,6 -1.57569542,5.1045695 -1.57569542,4 C-1.57569542,2.9456382 -0.759817628,2.08183488 0.275042236,2.00548574 L0.424304581,2 L8.42430458,2 Z" id="4" transform="translate(4.424305, 4.000000) rotate(-90.000000) translate(-4.424305, -4.000000) "></path>
            </g>
            <g id="Group-4-Copy" transform="translate(183.095000, 404.834000)" fill="#FFFFFF" fill-rule="nonzero">
                <path d="M8.514,34 L8.514,32.758 L2.25,32.758 L5.85,28.852 C6.606,28.024 7.149,27.274 7.479,26.602 C7.809,25.93 7.974,25.228 7.974,24.496 C7.974,23.476 7.635,22.666 6.957,22.066 C6.279,21.466 5.358,21.166 4.194,21.166 C3.426,21.166 2.661,21.307 1.899,21.589 C1.137,21.871 0.504,22.252 0,22.732 L0,22.732 L0.558,23.866 C1.734,22.894 2.934,22.408 4.158,22.408 C4.902,22.408 5.478,22.594 5.886,22.966 C6.294,23.338 6.498,23.872 6.498,24.568 C6.498,25.108 6.363,25.645 6.093,26.179 C5.823,26.713 5.388,27.316 4.788,27.988 L4.788,27.988 L0.342,32.884 L0.342,34 L8.514,34 Z" id="2"></path>
                <path d="M8.25330458,2 C9.35787408,2 10.2533046,2.8954305 10.2533046,4 C10.2533046,5.0543618 9.43742679,5.91816512 8.40256693,5.99451426 L8.25330458,6 L0.253304581,6 C-0.851264918,6 -1.74669542,5.1045695 -1.74669542,4 C-1.74669542,2.9456382 -0.930817628,2.08183488 0.104042236,2.00548574 L0.253304581,2 L8.25330458,2 Z" id="4" transform="translate(4.253305, 4.000000) rotate(-90.000000) translate(-4.253305, -4.000000) "></path>
            </g>
            <g id="Group-4-Copy-3" transform="translate(443.113000, 404.834000)" fill="#FFFFFF" fill-rule="nonzero">
                <polygon id="7" points="2.448 34 8.388 22.408 8.388 21.31 0 21.31 0 22.552 6.768 22.552 0.846 34"></polygon>
                <path d="M8.23530458,2 C9.33987408,2 10.2353046,2.8954305 10.2353046,4 C10.2353046,5.0543618 9.41942679,5.91816512 8.38456693,5.99451426 L8.23530458,6 L0.235304581,6 C-0.869264918,6 -1.76469542,5.1045695 -1.76469542,4 C-1.76469542,2.9456382 -0.948817628,2.08183488 0.0860422364,2.00548574 L0.235304581,2 L8.23530458,2 Z" id="4" transform="translate(4.235305, 4.000000) rotate(-90.000000) translate(-4.235305, -4.000000) "></path>
            </g>
            <g id="Group" transform="translate(234.915000, 404.834000)" fill="#FFFFFF" fill-rule="nonzero">
                <path d="M4.266,34.126 C5.55,34.126 6.567,33.808 7.317,33.172 C8.067,32.536 8.442,31.666 8.442,30.562 C8.442,29.77 8.244,29.113 7.848,28.591 C7.452,28.069 6.882,27.7 6.138,27.484 C6.774,27.244 7.269,26.851 7.623,26.305 C7.977,25.759 8.154,25.12 8.154,24.388 C8.154,23.404 7.815,22.621 7.137,22.039 C6.459,21.457 5.544,21.166 4.392,21.166 C3.588,21.166 2.814,21.304 2.07,21.58 C1.326,21.856 0.696,22.24 0.18,22.732 L0.18,22.732 L0.738,23.866 C1.914,22.894 3.114,22.408 4.338,22.408 C5.094,22.408 5.676,22.591 6.084,22.957 C6.492,23.323 6.696,23.848 6.696,24.532 C6.696,25.312 6.444,25.909 5.94,26.323 C5.436,26.737 4.716,26.944 3.78,26.944 L3.78,26.944 L2.61,26.944 L2.61,28.186 L4.068,28.186 C6.012,28.186 6.984,28.96 6.984,30.508 C6.984,31.288 6.75,31.879 6.282,32.281 C5.814,32.683 5.13,32.884 4.23,32.884 C2.934,32.884 1.71,32.398 0.558,31.426 L0.558,31.426 L0,32.56 C0.516,33.052 1.152,33.436 1.908,33.712 C2.664,33.988 3.45,34.126 4.266,34.126 Z" id="3"></path>
                <path d="M8.392,2 C9.4965695,2 10.392,2.8954305 10.392,4 C10.392,5.0543618 9.57612221,5.91816512 8.54126234,5.99451426 L8.392,6 L0.392,6 C-0.7125695,6 -1.608,5.1045695 -1.608,4 C-1.608,2.9456382 -0.792122209,2.08183488 0.242737655,2.00548574 L0.392,2 L8.392,2 Z" id="5" transform="translate(4.392000, 4.000000) rotate(-90.000000) translate(-4.392000, -4.000000) "></path>
            </g>
            <g id="Group-Copy" transform="translate(494.753000, 404.834000)" fill="#FFFFFF" fill-rule="nonzero">
                <path d="M4.554,34.126 C6.006,34.126 7.128,33.817 7.92,33.199 C8.712,32.581 9.108,31.726 9.108,30.634 C9.108,29.866 8.901,29.206 8.487,28.654 C8.073,28.102 7.494,27.712 6.75,27.484 C7.374,27.256 7.872,26.881 8.244,26.359 C8.616,25.837 8.802,25.228 8.802,24.532 C8.802,23.5 8.427,22.681 7.677,22.075 C6.927,21.469 5.886,21.166 4.554,21.166 C3.222,21.166 2.181,21.469 1.431,22.075 C0.681,22.681 0.306,23.5 0.306,24.532 C0.306,25.228 0.492,25.834 0.864,26.35 C1.236,26.866 1.74,27.244 2.376,27.484 C1.632,27.7 1.05,28.084 0.63,28.636 C0.21,29.188 0,29.854 0,30.634 C0,31.726 0.396,32.581 1.188,33.199 C1.98,33.817 3.102,34.126 4.554,34.126 Z M4.554,26.944 C3.642,26.944 2.949,26.746 2.475,26.35 C2.001,25.954 1.764,25.384 1.764,24.64 C1.764,23.932 2.001,23.38 2.475,22.984 C2.949,22.588 3.642,22.39 4.554,22.39 C5.466,22.39 6.159,22.588 6.633,22.984 C7.107,23.38 7.344,23.932 7.344,24.64 C7.344,25.384 7.107,25.954 6.633,26.35 C6.159,26.746 5.466,26.944 4.554,26.944 Z M4.554,32.902 C2.49,32.902 1.458,32.116 1.458,30.544 C1.458,28.972 2.49,28.186 4.554,28.186 C6.618,28.186 7.65,28.972 7.65,30.544 C7.65,32.116 6.618,32.902 4.554,32.902 Z" id="8"></path>
                <path d="M8.554,2 C9.6585695,2 10.554,2.8954305 10.554,4 C10.554,5.0543618 9.73812221,5.91816512 8.70326234,5.99451426 L8.554,6 L0.554,6 C-0.5505695,6 -1.446,5.1045695 -1.446,4 C-1.446,2.9456382 -0.630122209,2.08183488 0.404737655,2.00548574 L0.554,2 L8.554,2 Z" id="5" transform="translate(4.554000, 4.000000) rotate(-90.000000) translate(-4.554000, -4.000000) "></path>
            </g>
            <g id="Group-2" transform="translate(341.329000, 404.834000)" fill="#FFFFFF" fill-rule="nonzero">
                <path d="M4.176,34.126 C5.04,34.126 5.796,33.955 6.444,33.613 C7.092,33.271 7.593,32.794 7.947,32.182 C8.301,31.57 8.478,30.862 8.478,30.058 C8.478,29.266 8.316,28.567 7.992,27.961 C7.668,27.355 7.209,26.884 6.615,26.548 C6.021,26.212 5.322,26.044 4.518,26.044 C3.978,26.044 3.477,26.131 3.015,26.305 C2.553,26.479 2.154,26.728 1.818,27.052 L1.818,27.052 L1.818,22.534 L7.974,22.534 L7.974,21.31 L0.36,21.31 L0.36,28.744 L1.386,28.744 C2.106,27.76 3.072,27.268 4.284,27.268 C5.112,27.268 5.775,27.526 6.273,28.042 C6.771,28.558 7.02,29.236 7.02,30.076 C7.02,30.94 6.768,31.624 6.264,32.128 C5.76,32.632 5.064,32.884 4.176,32.884 C2.94,32.884 1.734,32.398 0.558,31.426 L0.558,31.426 L0,32.56 C0.516,33.04 1.149,33.421 1.899,33.703 C2.649,33.985 3.408,34.126 4.176,34.126 Z" id="5"></path>
                <path d="M8.01930458,2 C9.12387408,2 10.0193046,2.8954305 10.0193046,4 C10.0193046,5.0543618 9.20342679,5.91816512 8.16856693,5.99451426 L8.01930458,6 L0.0193045813,6 C-1.08526492,6 -1.98069542,5.1045695 -1.98069542,4 C-1.98069542,2.9456382 -1.16481763,2.08183488 -0.129957764,2.00548574 L0.0193045813,2 L8.01930458,2 Z" id="6" transform="translate(4.019305, 4.000000) rotate(-90.000000) translate(-4.019305, -4.000000) "></path>
            </g>
            <g id="Group-2-Copy-2" transform="translate(598.721000, 404.834000)" fill="#FFFFFF" fill-rule="nonzero">
                <path d="M7.182,34 L7.182,32.758 L4.392,32.758 L4.392,21.31 L3.33,21.31 L0,23.416 L0.684,24.55 L2.916,23.146 L2.916,32.758 L0.126,32.758 L0.126,34 L7.182,34 Z M13.986,34.144 C15.438,34.144 16.542,33.592 17.298,32.488 C18.054,31.384 18.432,29.77 18.432,27.646 C18.432,25.522 18.054,23.911 17.298,22.813 C16.542,21.715 15.438,21.166 13.986,21.166 C12.534,21.166 11.43,21.718 10.674,22.822 C9.918,23.926 9.54,25.54 9.54,27.664 C9.54,29.776 9.918,31.384 10.674,32.488 C11.43,33.592 12.534,34.144 13.986,34.144 Z M13.986,32.902 C12.978,32.902 12.234,32.476 11.754,31.624 C11.274,30.772 11.034,29.446 11.034,27.646 C11.034,25.846 11.274,24.526 11.754,23.686 C12.234,22.846 12.978,22.426 13.986,22.426 C15.006,22.426 15.753,22.843 16.227,23.677 C16.701,24.511 16.938,25.834 16.938,27.646 C16.938,29.446 16.698,30.772 16.218,31.624 C15.738,32.476 14.994,32.902 13.986,32.902 Z" id="10"></path>
                <path d="M12.6273046,2 C13.7318741,2 14.6273046,2.8954305 14.6273046,4 C14.6273046,5.0543618 13.8114268,5.91816512 12.7765669,5.99451426 L12.6273046,6 L4.62730458,6 C3.52273508,6 2.62730458,5.1045695 2.62730458,4 C2.62730458,2.9456382 3.44318237,2.08183488 4.47804224,2.00548574 L4.62730458,2 L12.6273046,2 Z" id="6" transform="translate(8.627305, 4.000000) rotate(-90.000000) translate(-8.627305, -4.000000) "></path>
            </g>
            <g id="Group-2-Copy" transform="translate(288.825000, 404.834000)" fill="#FFFFFF" fill-rule="nonzero">
                <path d="M7.326,34 L7.326,31.246 L9.234,31.246 L9.234,30.022 L7.326,30.022 L7.326,21.31 L6.12,21.31 L0,30.13 L0,31.246 L5.868,31.246 L5.868,34 L7.326,34 Z M5.868,30.022 L1.53,30.022 L5.868,23.776 L5.868,30.022 Z" id="4"></path>
                <path d="M8.52330458,2 C9.62787408,2 10.5233046,2.8954305 10.5233046,4 C10.5233046,5.0543618 9.70742679,5.91816512 8.67256693,5.99451426 L8.52330458,6 L0.523304581,6 C-0.581264918,6 -1.47669542,5.1045695 -1.47669542,4 C-1.47669542,2.9456382 -0.660817628,2.08183488 0.374042236,2.00548574 L0.523304581,2 L8.52330458,2 Z" id="6" transform="translate(4.523305, 4.000000) rotate(-90.000000) translate(-4.523305, -4.000000) "></path>
            </g>
            <g id="Group-2-Copy-3" transform="translate(548.825000, 404.834000)" fill="#FFFFFF" fill-rule="nonzero">
                <path d="M4.176,28.042 C3.36,28.042 2.703,27.787 2.205,27.277 C1.707,26.767 1.458,26.086 1.458,25.234 C1.458,24.382 1.704,23.698 2.196,23.182 C2.688,22.666 3.342,22.408 4.158,22.408 C4.998,22.408 5.679,22.669 6.201,23.191 C6.723,23.713 6.984,24.394 6.984,25.234 C6.984,26.062 6.723,26.737 6.201,27.259 C5.679,27.781 5.004,28.042 4.176,28.042 Z M7.397,27.125 L7.398,27.358 C7.398,29.122 7.098,30.487 6.498,31.453 C5.898,32.419 5.052,32.902 3.96,32.902 C3.396,32.902 2.841,32.785 2.295,32.551 C1.749,32.317 1.176,31.948 0.576,31.444 L0.576,31.444 L0.018,32.578 C0.546,33.082 1.158,33.469 1.854,33.739 C2.55,34.009 3.258,34.144 3.978,34.144 C5.526,34.144 6.732,33.547 7.596,32.353 C8.46,31.159 8.892,29.488 8.892,27.34 C8.892,25.36 8.475,23.836 7.641,22.768 C6.807,21.7 5.622,21.166 4.086,21.166 C3.306,21.166 2.604,21.34 1.98,21.688 C1.356,22.036 0.87,22.522 0.522,23.146 C0.174,23.77 5.68434189e-14,24.472 5.68434189e-14,25.252 C5.68434189e-14,26.044 0.168,26.746 0.504,27.358 C0.84,27.97 1.308,28.444 1.908,28.78 C2.508,29.116 3.192,29.284 3.96,29.284 C4.74,29.284 5.439,29.092 6.057,28.708 C6.675,28.324 7.122,27.796 7.398,27.124 L7.397,27.125 Z" id="9"></path>
                <path d="M8.52330458,2 C9.62787408,2 10.5233046,2.8954305 10.5233046,4 C10.5233046,5.0543618 9.70742679,5.91816512 8.67256693,5.99451426 L8.52330458,6 L0.523304581,6 C-0.581264918,6 -1.47669542,5.1045695 -1.47669542,4 C-1.47669542,2.9456382 -0.660817628,2.08183488 0.374042236,2.00548574 L0.523304581,2 L8.52330458,2 Z" id="6" transform="translate(4.523305, 4.000000) rotate(-90.000000) translate(-4.523305, -4.000000) "></path>
            </g>
            <path d="M635.307,0.834 C638.620708,0.834 641.307,3.5202915 641.307,6.834 L641.307,398.834 C641.307,402.147708 638.620708,404.834 635.307,404.834 L59.307,404.834 C55.9932915,404.834 53.307,402.147708 53.307,398.834 L53.307,6.834 C53.307,3.5202915 55.9932915,0.834 59.307,0.834 L635.307,0.834 Z M635.307,2.834 L59.307,2.834 C57.1648046,2.834 55.4159211,4.51796847 55.307,6.63435966 L55.307,6.834 L55.307,398.834 C55.307,400.976195 56.9909685,402.725079 59.1073597,402.829105 L59.307,402.834 L635.307,402.834 C637.449195,402.834 639.198079,401.150032 639.307,399.03364 L639.307,398.834 L639.307,6.834 C639.307,4.69180461 637.623032,2.94292112 635.50664,2.83889531 L635.307,2.834 Z" id="Rectangle" fill="#FFFFFF" fill-rule="nonzero"></path>
            <path d="M95.307,378.834 L79.307,378.834 C76.5455763,378.834 74.307,381.072576 74.307,383.834 L74.307,402.834 L100.307,402.834 L100.307,383.834 C100.307,381.072576 98.0684237,378.834 95.307,378.834 Z M95.307,380.834 L95.4832728,380.839093 C97.05808,380.930339 98.307,382.236319 98.307,383.834 L98.306,400.834 L76.306,400.834 L76.307,383.834 C76.307,382.177146 77.6501458,380.834 79.307,380.834 L95.307,380.834 Z" id="Rectangle" fill="#FF8C00" fill-rule="nonzero"></path>
            <path d="M145.307,358.834 L129.307,358.834 C126.545576,358.834 124.307,361.072576 124.307,363.834 L124.307,402.834 L150.307,402.834 L150.307,363.834 C150.307,361.072576 148.068424,358.834 145.307,358.834 Z M145.307,360.834 L145.483273,360.839093 C147.05808,360.930339 148.307,362.236319 148.307,363.834 L148.306,400.834 L126.306,400.834 L126.307,363.834 C126.307,362.177146 127.650146,360.834 129.307,360.834 L145.307,360.834 Z" id="Rectangle-Copy" fill="#FF8C00" fill-rule="nonzero"></path>
            <path d="M195.307,318.834 L179.307,318.834 C176.545576,318.834 174.307,321.072576 174.307,323.834 L174.307,402.834 L200.307,402.834 L200.307,323.834 C200.307,321.072576 198.068424,318.834 195.307,318.834 Z M195.307,320.834 L195.483273,320.839093 C197.05808,320.930339 198.307,322.236319 198.307,323.834 L198.306,400.834 L176.306,400.834 L176.307,323.834 C176.307,322.177146 177.650146,320.834 179.307,320.834 L195.307,320.834 Z" id="Rectangle-Copy-7" fill="#FF8C00" fill-rule="nonzero"></path>
            <path d="M247.307,200.834 L231.307,200.834 C228.545576,200.834 226.307,203.072576 226.307,205.834 L226.307,402.834 L252.307,402.834 L252.307,205.834 C252.307,203.072576 250.068424,200.834 247.307,200.834 Z M247.307,202.834 L247.483273,202.839093 C249.05808,202.930339 250.307,204.236319 250.307,205.834 L250.306,400.834 L228.306,400.834 L228.307,205.834 C228.307,204.177146 229.650146,202.834 231.307,202.834 L247.307,202.834 Z" id="Rectangle-Copy-9" fill="#FF8C00" fill-rule="nonzero"></path>
            <path d="M301.307,70.834 L285.307,70.834 C282.545576,70.834 280.307,73.0725763 280.307,75.834 L280.307,402.834 L306.307,402.834 L306.307,75.834 C306.307,73.0725763 304.068424,70.834 301.307,70.834 Z M301.307,72.834 L301.483273,72.8390927 C303.05808,72.9303391 304.307,74.2363191 304.307,75.834 L304.306,400.834 L282.306,400.834 L282.307,75.834 C282.307,74.1771458 283.650146,72.834 285.307,72.834 L301.307,72.834 Z" id="Rectangle-Copy-11" fill="#FF8C00" fill-rule="nonzero"></path>
            <path d="M353.307,16.834 L337.307,16.834 C334.545576,16.834 332.307,19.0725763 332.307,21.834 L332.307,402.834 L358.307,402.834 L358.307,21.834 C358.307,19.0725763 356.068424,16.834 353.307,16.834 Z M353.307,18.834 L353.483273,18.8390927 C355.05808,18.9303391 356.307,20.2363191 356.307,21.834 L356.306,400.834 L334.306,400.834 L334.307,21.834 C334.307,20.1771458 335.650146,18.834 337.307,18.834 L353.307,18.834 Z" id="Rectangle-Copy-13" fill="#FF8C00" fill-rule="nonzero"></path>
            <path d="M405.307,70.834 L389.307,70.834 C386.545576,70.834 384.307,73.0725763 384.307,75.834 L384.307,402.834 L410.307,402.834 L410.307,75.834 C410.307,73.0725763 408.068424,70.834 405.307,70.834 Z M405.307,72.834 L405.483273,72.8390927 C407.05808,72.9303391 408.307,74.2363191 408.307,75.834 L408.306,400.834 L386.306,400.834 L386.307,75.834 C386.307,74.1771458 387.650146,72.834 389.307,72.834 L405.307,72.834 Z" id="Rectangle-Copy-15" fill="#FF8C00" fill-rule="nonzero"></path>
            <path d="M79.307,379.834 L95.307,379.834 C97.516139,379.834 99.307,381.624861 99.307,383.834 L99.307,401.834 L99.307,401.834 L75.307,401.834 L75.307,383.834 C75.307,381.624861 77.097861,379.834 79.307,379.834 Z" id="Rectangle" fill="#222F4F"></path>
            <path d="M129.307,359.834 L145.307,359.834 C147.516139,359.834 149.307,361.624861 149.307,363.834 L149.307,401.834 L149.307,401.834 L125.307,401.834 L125.307,363.834 C125.307,361.624861 127.097861,359.834 129.307,359.834 Z" id="Rectangle-Copy" fill="#222F4F"></path>
            <path d="M179.307,319.834 L195.307,319.834 C197.516139,319.834 199.307,321.624861 199.307,323.834 L199.307,401.834 L199.307,401.834 L175.307,401.834 L175.307,323.834 C175.307,321.624861 177.097861,319.834 179.307,319.834 Z" id="Rectangle-Copy-7" fill="#222F4F"></path>
            <path d="M231.307,201.834 L247.307,201.834 C249.516139,201.834 251.307,203.624861 251.307,205.834 L251.307,401.834 L251.307,401.834 L227.307,401.834 L227.307,205.834 C227.307,203.624861 229.097861,201.834 231.307,201.834 Z" id="Rectangle-Copy-9" fill="#222F4F"></path>
            <path d="M285.307,71.834 L301.307,71.834 C303.516139,71.834 305.307,73.624861 305.307,75.834 L305.307,401.834 L305.307,401.834 L281.307,401.834 L281.307,75.834 C281.307,73.624861 283.097861,71.834 285.307,71.834 Z" id="Rectangle-Copy-11" fill="#222F4F"></path>
            <path d="M337.307,17.834 L353.307,17.834 C355.516139,17.834 357.307,19.624861 357.307,21.834 L357.307,401.834 L357.307,401.834 L333.307,401.834 L333.307,21.834 C333.307,19.624861 335.097861,17.834 337.307,17.834 Z" id="Rectangle-Copy-13" fill="#222F4F"></path>
            <path d="M389.307,71.834 L405.307,71.834 C407.516139,71.834 409.307,73.624861 409.307,75.834 L409.307,401.834 L409.307,401.834 L385.307,401.834 L385.307,75.834 C385.307,73.624861 387.097861,71.834 389.307,71.834 Z" id="Rectangle-Copy-15" fill="#222F4F"></path>
            <path d="M440.307,201.834 L456.307,201.834 C458.516139,201.834 460.307,203.624861 460.307,205.834 L460.307,401.834 L460.307,401.834 L436.307,401.834 L436.307,205.834 C436.307,203.624861 438.097861,201.834 440.307,201.834 Z" id="Rectangle-Copy-17" fill="#222F4F"></path>
            <path d="M490.307,319.834 L506.307,319.834 C508.516139,319.834 510.307,321.624861 510.307,323.834 L510.307,401.834 L510.307,401.834 L486.307,401.834 L486.307,323.834 C486.307,321.624861 488.097861,319.834 490.307,319.834 Z" id="Rectangle-Copy-18" fill="#222F4F"></path>
            <path d="M546.307,359.834 L562.307,359.834 C564.516139,359.834 566.307,361.624861 566.307,363.834 L566.307,401.834 L566.307,401.834 L542.307,401.834 L542.307,363.834 C542.307,361.624861 544.097861,359.834 546.307,359.834 Z" id="Rectangle-Copy-19" fill="#222F4F"></path>
            <path d="M598.307,379.834 L614.307,379.834 C616.516139,379.834 618.307,381.624861 618.307,383.834 L618.307,401.834 L618.307,401.834 L594.307,401.834 L594.307,383.834 C594.307,381.624861 596.097861,379.834 598.307,379.834 Z" id="Rectangle-Copy-20" fill="#222F4F"></path>
        </g>
        <g id="Group-6" transform="translate(497.000000, 673.000000)" fill="#FF8C00" fill-rule="nonzero">
            <path d="M106.034,19.162 C106.886,19.162 107.69,19.03 108.446,18.766 C109.202,18.502 109.838,18.13 110.354,17.65 L110.354,17.65 L109.58,15.958 C109.004,16.414 108.434,16.747 107.87,16.957 C107.306,17.167 106.706,17.272 106.07,17.272 C104.846,17.272 103.901,16.876 103.235,16.084 C102.569,15.292 102.236,14.146 102.236,12.646 C102.236,11.158 102.569,10.018 103.235,9.226 C103.901,8.434 104.846,8.038 106.07,8.038 C106.706,8.038 107.306,8.143 107.87,8.353 C108.434,8.563 109.004,8.896 109.58,9.352 L109.58,9.352 L110.354,7.66 C109.838,7.18 109.202,6.808 108.446,6.544 C107.69,6.28 106.886,6.148 106.034,6.148 C104.786,6.148 103.697,6.415 102.767,6.949 C101.837,7.483 101.123,8.239 100.625,9.217 C100.127,10.195 99.878,11.338 99.878,12.646 C99.878,13.954 100.127,15.1 100.625,16.084 C101.123,17.068 101.837,17.827 102.767,18.361 C103.697,18.895 104.786,19.162 106.034,19.162 Z M117.158,19 C119.234,19 120.845,18.442 121.991,17.326 C123.137,16.21 123.71,14.65 123.71,12.646 C123.71,10.642 123.137,9.085 121.991,7.975 C120.845,6.865 119.234,6.31 117.158,6.31 L117.158,6.31 L112.478,6.31 L112.478,19 L117.158,19 Z M117.014,17.11 L114.8,17.11 L114.8,8.2 L117.014,8.2 C119.93,8.2 121.388,9.682 121.388,12.646 C121.388,15.622 119.93,17.11 117.014,17.11 L117.014,17.11 Z M128.336,19 L128.336,13.474 L134.006,13.474 L134.006,11.62 L128.336,11.62 L128.336,8.164 L134.366,8.164 L134.366,6.31 L126.05,6.31 L126.05,19 L128.336,19 Z M139.082,22.51 L140.576,21.898 C139.988,20.446 139.577,19.126 139.343,17.938 C139.109,16.75 138.992,15.526 138.992,14.266 C138.992,13.006 139.109,11.782 139.343,10.594 C139.577,9.406 139.988,8.086 140.576,6.634 L140.576,6.634 L139.082,6.022 C138.206,7.51 137.588,8.902 137.228,10.198 C136.868,11.494 136.688,12.85 136.688,14.266 C136.688,15.682 136.868,17.038 137.228,18.334 C137.588,19.63 138.206,21.022 139.082,22.51 L139.082,22.51 Z M143.726,19 L147.182,14.248 L150.62,19 L153.32,19 L148.496,12.556 L153.176,6.31 L150.476,6.31 L147.182,10.864 L143.906,6.31 L141.206,6.31 L145.868,12.538 L141.026,19 L143.726,19 Z M162.95,12.844 L162.95,11.26 L154.166,11.26 L154.166,12.844 L162.95,12.844 Z M162.95,16.444 L162.95,14.86 L154.166,14.86 L154.166,16.444 L162.95,16.444 Z M169.772,19.162 C170.588,19.162 171.32,18.982 171.968,18.622 C172.616,18.262 173.12,17.761 173.48,17.119 C173.84,16.477 174.02,15.748 174.02,14.932 C174.02,14.14 173.855,13.435 173.525,12.817 C173.195,12.199 172.736,11.719 172.148,11.377 C171.56,11.035 170.894,10.864 170.15,10.864 C169.466,10.864 168.848,11.017 168.296,11.323 C167.744,11.629 167.33,12.052 167.054,12.592 C167.078,11.104 167.348,9.967 167.864,9.181 C168.38,8.395 169.1,8.002 170.024,8.002 C171.056,8.002 172.13,8.44 173.246,9.316 L173.246,9.316 L174.02,7.624 C173.492,7.156 172.868,6.793 172.148,6.535 C171.428,6.277 170.69,6.148 169.934,6.148 C168.866,6.148 167.942,6.415 167.162,6.949 C166.382,7.483 165.785,8.257 165.371,9.271 C164.957,10.285 164.75,11.488 164.75,12.88 C164.75,14.896 165.185,16.447 166.055,17.533 C166.925,18.619 168.164,19.162 169.772,19.162 Z M169.664,17.326 C168.992,17.326 168.449,17.113 168.035,16.687 C167.621,16.261 167.414,15.7 167.414,15.004 C167.414,14.32 167.621,13.765 168.035,13.339 C168.449,12.913 168.986,12.7 169.646,12.7 C170.306,12.7 170.834,12.91 171.23,13.33 C171.626,13.75 171.824,14.308 171.824,15.004 C171.824,15.712 171.629,16.276 171.239,16.696 C170.849,17.116 170.324,17.326 169.664,17.326 Z M176.882,22.51 C177.758,21.022 178.376,19.63 178.736,18.334 C179.096,17.038 179.276,15.682 179.276,14.266 C179.276,12.85 179.096,11.494 178.736,10.198 C178.376,8.902 177.758,7.51 176.882,6.022 L176.882,6.022 L175.388,6.634 C175.976,8.086 176.387,9.406 176.621,10.594 C176.855,11.782 176.972,13.006 176.972,14.266 C176.972,15.526 176.855,16.75 176.621,17.938 C176.387,19.126 175.976,20.446 175.388,21.898 L175.388,21.898 L176.882,22.51 Z" id="CDF(X=6)"></path>
            <path d="M84.392,12.844 L84.392,11.26 L75.608,11.26 L75.608,12.844 L84.392,12.844 Z M84.392,16.444 L84.392,14.86 L75.608,14.86 L75.608,16.444 L84.392,16.444 Z" id="="></path>
            <path d="M205.392,12.844 L205.392,11.26 L196.608,11.26 L196.608,12.844 L205.392,12.844 Z M205.392,16.444 L205.392,14.86 L196.608,14.86 L196.608,16.444 L205.392,16.444 Z" id="="></path>
            <path d="M8.586,19 L8.586,14.068 L11.808,14.068 C13.164,14.068 14.22,13.726 14.976,13.042 C15.732,12.358 16.11,11.404 16.11,10.18 C16.11,8.956 15.732,8.005 14.976,7.327 C14.22,6.649 13.164,6.31 11.808,6.31 L11.808,6.31 L6.264,6.31 L6.264,19 L8.586,19 Z M11.52,12.286 L8.586,12.286 L8.586,8.11 L11.52,8.11 C12.324,8.11 12.924,8.281 13.32,8.623 C13.716,8.965 13.914,9.49 13.914,10.198 C13.914,11.59 13.116,12.286 11.52,12.286 L11.52,12.286 Z M20.988,22.51 L22.482,21.898 C21.894,20.446 21.483,19.126 21.249,17.938 C21.015,16.75 20.898,15.526 20.898,14.266 C20.898,13.006 21.015,11.782 21.249,10.594 C21.483,9.406 21.894,8.086 22.482,6.634 L22.482,6.634 L20.988,6.022 C20.112,7.51 19.494,8.902 19.134,10.198 C18.774,11.494 18.594,12.85 18.594,14.266 C18.594,15.682 18.774,17.038 19.134,18.334 C19.494,19.63 20.112,21.022 20.988,22.51 L20.988,22.51 Z M25.632,19 L29.088,14.248 L32.526,19 L35.226,19 L30.402,12.556 L35.082,6.31 L32.382,6.31 L29.088,10.864 L25.812,6.31 L23.112,6.31 L27.774,12.538 L22.932,19 L25.632,19 Z M44.856,16.75 L44.856,15.076 L38.358,13.006 L44.856,10.954 L44.856,9.28 L36.072,12.16 L36.072,13.87 L44.856,16.75 Z M44.856,19 L44.856,17.416 L36.072,17.416 L36.072,19 L44.856,19 Z M51.678,19.162 C52.494,19.162 53.226,18.982 53.874,18.622 C54.522,18.262 55.026,17.761 55.386,17.119 C55.746,16.477 55.926,15.748 55.926,14.932 C55.926,14.14 55.761,13.435 55.431,12.817 C55.101,12.199 54.642,11.719 54.054,11.377 C53.466,11.035 52.8,10.864 52.056,10.864 C51.372,10.864 50.754,11.017 50.202,11.323 C49.65,11.629 49.236,12.052 48.96,12.592 C48.984,11.104 49.254,9.967 49.77,9.181 C50.286,8.395 51.006,8.002 51.93,8.002 C52.962,8.002 54.036,8.44 55.152,9.316 L55.152,9.316 L55.926,7.624 C55.398,7.156 54.774,6.793 54.054,6.535 C53.334,6.277 52.596,6.148 51.84,6.148 C50.772,6.148 49.848,6.415 49.068,6.949 C48.288,7.483 47.691,8.257 47.277,9.271 C46.863,10.285 46.656,11.488 46.656,12.88 C46.656,14.896 47.091,16.447 47.961,17.533 C48.831,18.619 50.07,19.162 51.678,19.162 Z M51.57,17.326 C50.898,17.326 50.355,17.113 49.941,16.687 C49.527,16.261 49.32,15.7 49.32,15.004 C49.32,14.32 49.527,13.765 49.941,13.339 C50.355,12.913 50.892,12.7 51.552,12.7 C52.212,12.7 52.74,12.91 53.136,13.33 C53.532,13.75 53.73,14.308 53.73,15.004 C53.73,15.712 53.535,16.276 53.145,16.696 C52.755,17.116 52.23,17.326 51.57,17.326 Z M58.788,22.51 C59.664,21.022 60.282,19.63 60.642,18.334 C61.002,17.038 61.182,15.682 61.182,14.266 C61.182,12.85 61.002,11.494 60.642,10.198 C60.282,8.902 59.664,7.51 58.788,6.022 L58.788,6.022 L57.294,6.634 C57.882,8.086 58.293,9.406 58.527,10.594 C58.761,11.782 58.878,13.006 58.878,14.266 C58.878,15.526 58.761,16.75 58.527,17.938 C58.293,19.126 57.882,20.446 57.294,21.898 L57.294,21.898 L58.788,22.51 Z" id="P(X≤6)"></path>
            <path d="M228.4,19.162 C229.9,19.162 231.046,18.604 231.838,17.488 C232.63,16.372 233.026,14.758 233.026,12.646 C233.026,10.546 232.63,8.944 231.838,7.84 C231.046,6.736 229.9,6.184 228.4,6.184 C226.9,6.184 225.754,6.736 224.962,7.84 C224.17,8.944 223.774,10.546 223.774,12.646 C223.774,14.77 224.17,16.387 224.962,17.497 C225.754,18.607 226.9,19.162 228.4,19.162 Z M228.4,17.344 C227.584,17.344 226.99,16.969 226.618,16.219 C226.246,15.469 226.06,14.278 226.06,12.646 C226.06,11.026 226.246,9.847 226.618,9.109 C226.99,8.371 227.584,8.002 228.4,8.002 C229.216,8.002 229.81,8.371 230.182,9.109 C230.554,9.847 230.74,11.026 230.74,12.646 C230.74,14.278 230.554,15.469 230.182,16.219 C229.81,16.969 229.216,17.344 228.4,17.344 Z M237.292,19 L237.292,16.516 L234.772,16.516 L234.772,19 L237.292,19 Z M243.664,19.144 C245.152,19.144 246.316,18.829 247.156,18.199 C247.996,17.569 248.416,16.696 248.416,15.58 C248.416,14.8 248.215,14.14 247.813,13.6 C247.411,13.06 246.838,12.688 246.094,12.484 C246.718,12.268 247.21,11.902 247.57,11.386 C247.93,10.87 248.11,10.264 248.11,9.568 C248.11,8.512 247.714,7.678 246.922,7.066 C246.13,6.454 245.044,6.148 243.664,6.148 C242.284,6.148 241.198,6.454 240.406,7.066 C239.614,7.678 239.218,8.512 239.218,9.568 C239.218,10.252 239.398,10.849 239.758,11.359 C240.118,11.869 240.616,12.244 241.252,12.484 C240.508,12.676 239.932,13.045 239.524,13.591 C239.116,14.137 238.912,14.8 238.912,15.58 C238.912,16.696 239.332,17.569 240.172,18.199 C241.012,18.829 242.176,19.144 243.664,19.144 Z M243.664,11.674 C242.92,11.674 242.359,11.515 241.981,11.197 C241.603,10.879 241.414,10.414 241.414,9.802 C241.414,8.578 242.164,7.966 243.664,7.966 C245.164,7.966 245.914,8.578 245.914,9.802 C245.914,10.414 245.725,10.879 245.347,11.197 C244.969,11.515 244.408,11.674 243.664,11.674 Z M243.664,17.326 C241.948,17.326 241.09,16.684 241.09,15.4 C241.09,14.116 241.948,13.474 243.664,13.474 C245.38,13.474 246.238,14.116 246.238,15.4 C246.238,16.684 245.38,17.326 243.664,17.326 Z M254.23,19.144 C255.622,19.144 256.723,18.823 257.533,18.181 C258.343,17.539 258.748,16.666 258.748,15.562 C258.748,14.77 258.547,14.107 258.145,13.573 C257.743,13.039 257.17,12.676 256.426,12.484 C257.05,12.256 257.539,11.881 257.893,11.359 C258.247,10.837 258.43,10.222 258.442,9.514 C258.442,8.482 258.07,7.663 257.326,7.057 C256.582,6.451 255.586,6.148 254.338,6.148 C253.522,6.148 252.721,6.28 251.935,6.544 C251.149,6.808 250.504,7.168 250,7.624 L250,7.624 L250.774,9.316 C251.326,8.884 251.893,8.557 252.475,8.335 C253.057,8.113 253.63,8.002 254.194,8.002 C254.842,8.002 255.343,8.158 255.697,8.47 C256.051,8.782 256.228,9.226 256.228,9.802 C256.228,11.038 255.406,11.656 253.762,11.656 L253.762,11.656 L252.394,11.656 L252.394,13.492 L254.068,13.492 C254.908,13.492 255.529,13.645 255.931,13.951 C256.333,14.257 256.534,14.728 256.534,15.364 C256.534,16.012 256.336,16.495 255.94,16.813 C255.544,17.131 254.944,17.29 254.14,17.29 C252.88,17.29 251.698,16.852 250.594,15.976 L250.594,15.976 L249.82,17.668 C250.336,18.124 250.987,18.484 251.773,18.748 C252.559,19.012 253.378,19.144 254.23,19.144 Z" id="0.83"></path>
        </g>
    </g>
</svg>