<svg height="941" viewBox="0 0 1214 941" width="1214" xmlns="http://www.w3.org/2000/svg"><g fill="none" fill-rule="evenodd"><g fill="#ff8c00" fill-rule="nonzero" transform="translate(497 673)"><path d="m106.034 19.162c.852 0 1.656-.132 2.412-.396s1.392-.636 1.908-1.116l-.774-1.692c-.576.456-1.146.789-1.71.999s-1.164.315-1.8.315c-1.224 0-2.169-.396-2.835-1.188s-.999-1.938-.999-3.438c0-1.488.333-2.628.999-3.42s1.611-1.188 2.835-1.188c.636 0 1.236.105 1.8.315s1.134.543 1.71.999l.774-1.692c-.516-.48-1.152-.852-1.908-1.116s-1.56-.396-2.412-.396c-1.248 0-2.337.267-3.267.801s-1.644 1.29-2.142 2.268-.747 2.121-.747 3.429.249 2.454.747 3.438 1.212 1.743 2.142 2.277 2.019.801 3.267.801zm11.124-.162c2.076 0 3.687-.558 4.833-1.674s1.719-2.676 1.719-4.68-.573-3.561-1.719-4.671-2.757-1.665-4.833-1.665h-4.68v12.69zm-.144-1.89h-2.214v-8.91h2.214c2.916 0 4.374 1.482 4.374 4.446 0 2.976-1.458 4.464-4.374 4.464zm11.322 1.89v-5.526h5.67v-1.854h-5.67v-3.456h6.03v-1.854h-8.316v12.69zm10.746 3.51 1.494-.612c-.588-1.452-.999-2.772-1.233-3.96s-.351-2.412-.351-3.672.117-2.484.351-3.672.645-2.508 1.233-3.96l-1.494-.612c-.876 1.488-1.494 2.88-1.854 4.176s-.54 2.652-.54 4.068.18 2.772.54 4.068.978 2.688 1.854 4.176zm4.644-3.51 3.456-4.752 3.438 4.752h2.7l-4.824-6.444 4.68-6.246h-2.7l-3.294 4.554-3.276-4.554h-2.7l4.662 6.228-4.842 6.462zm19.224-6.156v-1.584h-8.784v1.584zm0 3.6v-1.584h-8.784v1.584zm6.822 2.718c.816 0 1.548-.18 2.196-.54s1.152-.861 1.512-1.503.54-1.371.54-2.187c0-.792-.165-1.497-.495-2.115s-.789-1.098-1.377-1.44-1.254-.513-1.998-.513c-.684 0-1.302.153-1.854.459s-.966.729-1.242 1.269c.024-1.488.294-2.625.81-3.411s1.236-1.179 2.16-1.179c1.032 0 2.106.438 3.222 1.314l.774-1.692c-.528-.468-1.152-.831-1.872-1.089s-1.458-.387-2.214-.387c-1.068 0-1.992.267-2.772.801s-1.377 1.308-1.791 2.322-.621 2.217-.621 3.609c0 2.016.435 3.567 1.305 4.653s2.109 1.629 3.717 1.629zm-.108-1.836c-.672 0-1.215-.213-1.629-.639s-.621-.987-.621-1.683c0-.684.207-1.239.621-1.665s.951-.639 1.611-.639 1.188.21 1.584.63.594.978.594 1.674c0 .708-.195 1.272-.585 1.692s-.915.63-1.575.63zm7.218 5.184c.876-1.488 1.494-2.88 1.854-4.176s.54-2.652.54-4.068-.18-2.772-.54-4.068-.978-2.688-1.854-4.176l-1.494.612c.588 1.452.999 2.772 1.233 3.96s.351 2.412.351 3.672-.117 2.484-.351 3.672-.645 2.508-1.233 3.96z"/><path d="m84.392 12.844v-1.584h-8.784v1.584zm0 3.6v-1.584h-8.784v1.584z"/><path d="m205.392 12.844v-1.584h-8.784v1.584zm0 3.6v-1.584h-8.784v1.584z"/><path d="m8.586 19v-4.932h3.222c1.356 0 2.412-.342 3.168-1.026s1.134-1.638 1.134-2.862-.378-2.175-1.134-2.853-1.812-1.017-3.168-1.017h-5.544v12.69zm2.934-6.714h-2.934v-4.176h2.934c.804 0 1.404.171 1.8.513s.594.867.594 1.575c0 1.392-.798 2.088-2.394 2.088zm9.468 10.224 1.494-.612c-.588-1.452-.999-2.772-1.233-3.96s-.351-2.412-.351-3.672.117-2.484.351-3.672.645-2.508 1.233-3.96l-1.494-.612c-.876 1.488-1.494 2.88-1.854 4.176s-.54 2.652-.54 4.068.18 2.772.54 4.068.978 2.688 1.854 4.176zm4.644-3.51 3.456-4.752 3.438 4.752h2.7l-4.824-6.444 4.68-6.246h-2.7l-3.294 4.554-3.276-4.554h-2.7l4.662 6.228-4.842 6.462zm19.224-2.25v-1.674l-6.498-2.07 6.498-2.052v-1.674l-8.784 2.88v1.71zm0 2.25v-1.584h-8.784v1.584zm6.822.162c.816 0 1.548-.18 2.196-.54s1.152-.861 1.512-1.503.54-1.371.54-2.187c0-.792-.165-1.497-.495-2.115s-.789-1.098-1.377-1.44-1.254-.513-1.998-.513c-.684 0-1.302.153-1.854.459s-.966.729-1.242 1.269c.024-1.488.294-2.625.81-3.411s1.236-1.179 2.16-1.179c1.032 0 2.106.438 3.222 1.314l.774-1.692c-.528-.468-1.152-.831-1.872-1.089s-1.458-.387-2.214-.387c-1.068 0-1.992.267-2.772.801s-1.377 1.308-1.791 2.322-.621 2.217-.621 3.609c0 2.016.435 3.567 1.305 4.653s2.109 1.629 3.717 1.629zm-.108-1.836c-.672 0-1.215-.213-1.629-.639s-.621-.987-.621-1.683c0-.684.207-1.239.621-1.665s.951-.639 1.611-.639 1.188.21 1.584.63.594.978.594 1.674c0 .708-.195 1.272-.585 1.692s-.915.63-1.575.63zm7.218 5.184c.876-1.488 1.494-2.88 1.854-4.176s.54-2.652.54-4.068-.18-2.772-.54-4.068-.978-2.688-1.854-4.176l-1.494.612c.588 1.452.999 2.772 1.233 3.96s.351 2.412.351 3.672-.117 2.484-.351 3.672-.645 2.508-1.233 3.96z"/><path d="m228.4 19.162c1.5 0 2.646-.558 3.438-1.674s1.188-2.73 1.188-4.842c0-2.1-.396-3.702-1.188-4.806s-1.938-1.656-3.438-1.656-2.646.552-3.438 1.656-1.188 2.706-1.188 4.806c0 2.124.396 3.741 1.188 4.851s1.938 1.665 3.438 1.665zm0-1.818c-.816 0-1.41-.375-1.782-1.125s-.558-1.941-.558-3.573c0-1.62.186-2.799.558-3.537s.966-1.107 1.782-1.107 1.41.369 1.782 1.107.558 1.917.558 3.537c0 1.632-.186 2.823-.558 3.573s-.966 1.125-1.782 1.125zm8.892 1.656v-2.484h-2.52v2.484zm6.372.144c1.488 0 2.652-.315 3.492-.945s1.26-1.503 1.26-2.619c0-.78-.201-1.44-.603-1.98s-.975-.912-1.719-1.116c.624-.216 1.116-.582 1.476-1.098s.54-1.122.54-1.818c0-1.056-.396-1.89-1.188-2.502s-1.878-.918-3.258-.918-2.466.306-3.258.918-1.188 1.446-1.188 2.502c0 .684.18 1.281.54 1.791s.858.885 1.494 1.125c-.744.192-1.32.561-1.728 1.107s-.612 1.209-.612 1.989c0 1.116.42 1.989 1.26 2.619s2.004.945 3.492.945zm0-7.47c-.744 0-1.305-.159-1.683-.477s-.567-.783-.567-1.395c0-1.224.75-1.836 2.25-1.836s2.25.612 2.25 1.836c0 .612-.189 1.077-.567 1.395s-.939.477-1.683.477zm0 5.652c-1.716 0-2.574-.642-2.574-1.926s.858-1.926 2.574-1.926 2.574.642 2.574 1.926-.858 1.926-2.574 1.926zm10.566 1.818c1.392 0 2.493-.321 3.303-.963s1.215-1.515 1.215-2.619c0-.792-.201-1.455-.603-1.989s-.975-.897-1.719-1.089c.624-.228 1.113-.603 1.467-1.125s.537-1.137.549-1.845c0-1.032-.372-1.851-1.116-2.457s-1.74-.909-2.988-.909c-.816 0-1.617.132-2.403.396s-1.431.624-1.935 1.08l.774 1.692c.552-.432 1.119-.759 1.701-.981s1.155-.333 1.719-.333c.648 0 1.149.156 1.503.468s.531.756.531 1.332c0 1.236-.822 1.854-2.466 1.854h-1.368v1.836h1.674c.84 0 1.461.153 1.863.459s.603.777.603 1.413c0 .648-.198 1.131-.594 1.449s-.996.477-1.8.477c-1.26 0-2.442-.438-3.546-1.314l-.774 1.692c.516.456 1.167.816 1.953 1.08s1.605.396 2.457.396z"/></g><g transform="translate(290.693 213.166)"><g fill-rule="nonzero"><g fill="#fff" transform="translate(82.861 404.834)"><path d="m4.446 34.144c1.452 0 2.556-.552 3.312-1.656s1.134-2.718 1.134-4.842-.378-3.735-1.134-4.833-1.86-1.647-3.312-1.647-2.556.552-3.312 1.656-1.134 2.718-1.134 4.842c0 2.112.378 3.72 1.134 4.824s1.86 1.656 3.312 1.656zm0-1.242c-1.008 0-1.752-.426-2.232-1.278s-.72-2.178-.72-3.978.24-3.12.72-3.96 1.224-1.26 2.232-1.26c1.02 0 1.767.417 2.241 1.251s.711 2.157.711 3.969c0 1.8-.24 3.126-.72 3.978s-1.224 1.278-2.232 1.278z"/><path d="m8.48730458 2c1.1045695 0 2.00000002.8954305 2.00000002 2 0 1.0543618-.81587781 1.91816512-1.85073767 1.99451426l-.14926235.00548574h-8c-1.1045695 0-2-.8954305-2-2 0-1.0543618.81587779-1.91816512 1.85073766-1.99451426l.14926234-.00548574z" transform="matrix(0 -1 1 0 .487305 8.487305)"/></g><g fill="#fff"><path d="m4.446 12.978c1.452 0 2.556-.552 3.312-1.656s1.134-2.718 1.134-4.842-.378-3.735-1.134-4.833-1.86-1.647-3.312-1.647-2.556.552-3.312 1.656-1.134 2.718-1.134 4.842c0 2.112.378 3.72 1.134 4.824s1.86 1.656 3.312 1.656zm0-1.242c-1.008 0-1.752-.426-2.232-1.278s-.72-2.178-.72-3.978.24-3.12.72-3.96 1.224-1.26 2.232-1.26c1.02 0 1.767.417 2.241 1.251s.711 2.157.711 3.969c0 1.8-.24 3.126-.72 3.978s-1.224 1.278-2.232 1.278zm8.37 1.098v-1.836h-1.836v1.836zm10.854 0v-1.242h-6.264l3.6-3.906c.756-.828 1.299-1.578 1.629-2.25s.495-1.374.495-2.106c0-1.02-.339-1.83-1.017-2.43s-1.599-.9-2.763-.9c-.768 0-1.533.141-2.295.423s-1.395.663-1.899 1.143l.558 1.134c1.176-.972 2.376-1.458 3.6-1.458.744 0 1.32.186 1.728.558s.612.906.612 1.602c0 .54-.135 1.077-.405 1.611s-.705 1.137-1.305 1.809l-4.446 4.896v1.116zm6.696.126c.864 0 1.62-.171 2.268-.513s1.149-.819 1.503-1.431.531-1.32.531-2.124c0-.792-.162-1.491-.486-2.097s-.783-1.077-1.377-1.413-1.293-.504-2.097-.504c-.54 0-1.041.087-1.503.261s-.861.423-1.197.747v-4.518h6.156v-1.224h-7.614v7.434h1.026c.72-.984 1.686-1.476 2.898-1.476.828 0 1.491.258 1.989.774s.747 1.194.747 2.034c0 .864-.252 1.548-.756 2.052s-1.2.756-2.088.756c-1.236 0-2.442-.486-3.618-1.458l-.558 1.134c.516.48 1.149.861 1.899 1.143s1.509.423 2.277.423z"/><path d="m53.3483046 4.834c1.1045695 0 2 .8954305 2 2 0 1.0543618-.8158778 1.91816512-1.8507377 1.99451426l-.1492623.00548574h-8c-1.1045695 0-2-.8954305-2-2 0-1.0543618.8158778-1.91816512 1.8507376-1.99451426l.1492624-.00548574z"/></g><g fill="#fff" transform="translate(0 78)"><path d="m4.446 12.978c1.452 0 2.556-.552 3.312-1.656s1.134-2.718 1.134-4.842-.378-3.735-1.134-4.833-1.86-1.647-3.312-1.647-2.556.552-3.312 1.656-1.134 2.718-1.134 4.842c0 2.112.378 3.72 1.134 4.824s1.86 1.656 3.312 1.656zm0-1.242c-1.008 0-1.752-.426-2.232-1.278s-.72-2.178-.72-3.978.24-3.12.72-3.96 1.224-1.26 2.232-1.26c1.02 0 1.767.417 2.241 1.251s.711 2.157.711 3.969c0 1.8-.24 3.126-.72 3.978s-1.224 1.278-2.232 1.278zm8.37 1.098v-1.836h-1.836v1.836zm10.854 0v-1.242h-6.264l3.6-3.906c.756-.828 1.299-1.578 1.629-2.25s.495-1.374.495-2.106c0-1.02-.339-1.83-1.017-2.43s-1.599-.9-2.763-.9c-.768 0-1.533.141-2.295.423s-1.395.663-1.899 1.143l.558 1.134c1.176-.972 2.376-1.458 3.6-1.458.744 0 1.32.186 1.728.558s.612.906.612 1.602c0 .54-.135 1.077-.405 1.611s-.705 1.137-1.305 1.809l-4.446 4.896v1.116zm6.498.144c1.452 0 2.556-.552 3.312-1.656s1.134-2.718 1.134-4.842-.378-3.735-1.134-4.833-1.86-1.647-3.312-1.647-2.556.552-3.312 1.656-1.134 2.718-1.134 4.842c0 2.112.378 3.72 1.134 4.824s1.86 1.656 3.312 1.656zm0-1.242c-1.008 0-1.752-.426-2.232-1.278s-.72-2.178-.72-3.978.24-3.12.72-3.96 1.224-1.26 2.232-1.26c1.02 0 1.767.417 2.241 1.251s.711 2.157.711 3.969c0 1.8-.24 3.126-.72 3.978s-1.224 1.278-2.232 1.278z"/><path d="m53.3483046 4.834c1.1045695 0 2 .8954305 2 2 0 1.0543618-.8158778 1.91816512-1.8507377 1.99451426l-.1492623.00548574h-8c-1.1045695 0-2-.8954305-2-2 0-1.0543618.8158778-1.91816512 1.8507376-1.99451426l.1492624-.00548574z"/></g><g fill="#fff" transform="translate(0 156)"><path d="m4.446 12.978c1.452 0 2.556-.552 3.312-1.656s1.134-2.718 1.134-4.842-.378-3.735-1.134-4.833-1.86-1.647-3.312-1.647-2.556.552-3.312 1.656-1.134 2.718-1.134 4.842c0 2.112.378 3.72 1.134 4.824s1.86 1.656 3.312 1.656zm0-1.242c-1.008 0-1.752-.426-2.232-1.278s-.72-2.178-.72-3.978.24-3.12.72-3.96 1.224-1.26 2.232-1.26c1.02 0 1.767.417 2.241 1.251s.711 2.157.711 3.969c0 1.8-.24 3.126-.72 3.978s-1.224 1.278-2.232 1.278zm8.37 1.098v-1.836h-1.836v1.836zm10.548 0v-1.242h-2.79v-11.448h-1.062l-3.33 2.106.684 1.134 2.232-1.404v9.612h-2.79v1.242zm7.002.126c.864 0 1.62-.171 2.268-.513s1.149-.819 1.503-1.431.531-1.32.531-2.124c0-.792-.162-1.491-.486-2.097s-.783-1.077-1.377-1.413-1.293-.504-2.097-.504c-.54 0-1.041.087-1.503.261s-.861.423-1.197.747v-4.518h6.156v-1.224h-7.614v7.434h1.026c.72-.984 1.686-1.476 2.898-1.476.828 0 1.491.258 1.989.774s.747 1.194.747 2.034c0 .864-.252 1.548-.756 2.052s-1.2.756-2.088.756c-1.236 0-2.442-.486-3.618-1.458l-.558 1.134c.516.48 1.149.861 1.899 1.143s1.509.423 2.277.423z"/><path d="m53.3483046 4.834c1.1045695 0 2 .8954305 2 2 0 1.0543618-.8158778 1.91816512-1.8507377 1.99451426l-.1492623.00548574h-8c-1.1045695 0-2-.8954305-2-2 0-1.0543618.8158778-1.91816512 1.8507376-1.99451426l.1492624-.00548574z"/></g><g fill="#fff" transform="translate(0 236)"><path d="m4.446 12.978c1.452 0 2.556-.552 3.312-1.656s1.134-2.718 1.134-4.842-.378-3.735-1.134-4.833-1.86-1.647-3.312-1.647-2.556.552-3.312 1.656-1.134 2.718-1.134 4.842c0 2.112.378 3.72 1.134 4.824s1.86 1.656 3.312 1.656zm0-1.242c-1.008 0-1.752-.426-2.232-1.278s-.72-2.178-.72-3.978.24-3.12.72-3.96 1.224-1.26 2.232-1.26c1.02 0 1.767.417 2.241 1.251s.711 2.157.711 3.969c0 1.8-.24 3.126-.72 3.978s-1.224 1.278-2.232 1.278zm8.37 1.098v-1.836h-1.836v1.836zm10.548 0v-1.242h-2.79v-11.448h-1.062l-3.33 2.106.684 1.134 2.232-1.404v9.612h-2.79v1.242zm6.804.144c1.452 0 2.556-.552 3.312-1.656s1.134-2.718 1.134-4.842-.378-3.735-1.134-4.833-1.86-1.647-3.312-1.647-2.556.552-3.312 1.656-1.134 2.718-1.134 4.842c0 2.112.378 3.72 1.134 4.824s1.86 1.656 3.312 1.656zm0-1.242c-1.008 0-1.752-.426-2.232-1.278s-.72-2.178-.72-3.978.24-3.12.72-3.96 1.224-1.26 2.232-1.26c1.02 0 1.767.417 2.241 1.251s.711 2.157.711 3.969c0 1.8-.24 3.126-.72 3.978s-1.224 1.278-2.232 1.278z"/><path d="m53.3483046 4.834c1.1045695 0 2 .8954305 2 2 0 1.0543618-.8158778 1.91816512-1.8507377 1.99451426l-.1492623.00548574h-8c-1.1045695 0-2-.8954305-2-2 0-1.0543618.8158778-1.91816512 1.8507376-1.99451426l.1492624-.00548574z"/></g><g fill="#fff" transform="translate(0 314)"><path d="m4.446 12.978c1.452 0 2.556-.552 3.312-1.656s1.134-2.718 1.134-4.842-.378-3.735-1.134-4.833-1.86-1.647-3.312-1.647-2.556.552-3.312 1.656-1.134 2.718-1.134 4.842c0 2.112.378 3.72 1.134 4.824s1.86 1.656 3.312 1.656zm0-1.242c-1.008 0-1.752-.426-2.232-1.278s-.72-2.178-.72-3.978.24-3.12.72-3.96 1.224-1.26 2.232-1.26c1.02 0 1.767.417 2.241 1.251s.711 2.157.711 3.969c0 1.8-.24 3.126-.72 3.978s-1.224 1.278-2.232 1.278zm8.37 1.098v-1.836h-1.836v1.836zm6.552.144c1.452 0 2.556-.552 3.312-1.656s1.134-2.718 1.134-4.842-.378-3.735-1.134-4.833-1.86-1.647-3.312-1.647-2.556.552-3.312 1.656-1.134 2.718-1.134 4.842c0 2.112.378 3.72 1.134 4.824s1.86 1.656 3.312 1.656zm0-1.242c-1.008 0-1.752-.426-2.232-1.278s-.72-2.178-.72-3.978.24-3.12.72-3.96 1.224-1.26 2.232-1.26c1.02 0 1.767.417 2.241 1.251s.711 2.157.711 3.969c0 1.8-.24 3.126-.72 3.978s-1.224 1.278-2.232 1.278zm10.998 1.224c.864 0 1.62-.171 2.268-.513s1.149-.819 1.503-1.431.531-1.32.531-2.124c0-.792-.162-1.491-.486-2.097s-.783-1.077-1.377-1.413-1.293-.504-2.097-.504c-.54 0-1.041.087-1.503.261s-.861.423-1.197.747v-4.518h6.156v-1.224h-7.614v7.434h1.026c.72-.984 1.686-1.476 2.898-1.476.828 0 1.491.258 1.989.774s.747 1.194.747 2.034c0 .864-.252 1.548-.756 2.052s-1.2.756-2.088.756c-1.236 0-2.442-.486-3.618-1.458l-.558 1.134c.516.48 1.149.861 1.899 1.143s1.509.423 2.277.423z"/><path d="m53.3483046 4.834c1.1045695 0 2 .8954305 2 2 0 1.0543618-.8158778 1.91816512-1.8507377 1.99451426l-.1492623.00548574h-8c-1.1045695 0-2-.8954305-2-2 0-1.0543618.8158778-1.91816512 1.8507376-1.99451426l.1492624-.00548574z"/></g><g fill="#fff" transform="translate(0 392)"><path d="m4.446 12.978c1.452 0 2.556-.552 3.312-1.656s1.134-2.718 1.134-4.842-.378-3.735-1.134-4.833-1.86-1.647-3.312-1.647-2.556.552-3.312 1.656-1.134 2.718-1.134 4.842c0 2.112.378 3.72 1.134 4.824s1.86 1.656 3.312 1.656zm0-1.242c-1.008 0-1.752-.426-2.232-1.278s-.72-2.178-.72-3.978.24-3.12.72-3.96 1.224-1.26 2.232-1.26c1.02 0 1.767.417 2.241 1.251s.711 2.157.711 3.969c0 1.8-.24 3.126-.72 3.978s-1.224 1.278-2.232 1.278zm8.37 1.098v-1.836h-1.836v1.836zm6.552.144c1.452 0 2.556-.552 3.312-1.656s1.134-2.718 1.134-4.842-.378-3.735-1.134-4.833-1.86-1.647-3.312-1.647-2.556.552-3.312 1.656-1.134 2.718-1.134 4.842c0 2.112.378 3.72 1.134 4.824s1.86 1.656 3.312 1.656zm0-1.242c-1.008 0-1.752-.426-2.232-1.278s-.72-2.178-.72-3.978.24-3.12.72-3.96 1.224-1.26 2.232-1.26c1.02 0 1.767.417 2.241 1.251s.711 2.157.711 3.969c0 1.8-.24 3.126-.72 3.978s-1.224 1.278-2.232 1.278zm10.8 1.242c1.452 0 2.556-.552 3.312-1.656s1.134-2.718 1.134-4.842-.378-3.735-1.134-4.833-1.86-1.647-3.312-1.647-2.556.552-3.312 1.656-1.134 2.718-1.134 4.842c0 2.112.378 3.72 1.134 4.824s1.86 1.656 3.312 1.656zm0-1.242c-1.008 0-1.752-.426-2.232-1.278s-.72-2.178-.72-3.978.24-3.12.72-3.96 1.224-1.26 2.232-1.26c1.02 0 1.767.417 2.241 1.251s.711 2.157.711 3.969c0 1.8-.24 3.126-.72 3.978s-1.224 1.278-2.232 1.278z"/><path d="m53.3483046 4.834c1.1045695 0 2 .8954305 2 2 0 1.0543618-.8158778 1.91816512-1.8507377 1.99451426l-.1492623.00548574h-8c-1.1045695 0-2-.8954305-2-2 0-1.0543618.8158778-1.91816512 1.8507376-1.99451426l.1492624-.00548574z"/></g><g fill="#fff" transform="translate(134.121 404.834)"><path d="m7.182 34v-1.242h-2.79v-11.448h-1.062l-3.33 2.106.684 1.134 2.232-1.404v9.612h-2.79v1.242z"/><path d="m7.22730458 2c1.1045695 0 2 .8954305 2 2 0 1.0543618-.81587779 1.91816512-1.85073765 1.99451426l-.14926235.00548574h-8c-1.1045695 0-2-.8954305-2-2 0-1.0543618.81587779-1.91816512 1.85073766-1.99451426l.14926234-.00548574z" transform="matrix(0 -1 1 0 -.772695 7.227305)"/></g><g fill="#fff" transform="translate(392.924 404.834)"><path d="m4.806 34.144c.78 0 1.482-.174 2.106-.522s1.11-.834 1.458-1.458.522-1.326.522-2.106c0-.792-.168-1.494-.504-2.106s-.804-1.086-1.404-1.422-1.284-.504-2.052-.504c-.804 0-1.512.198-2.124.594s-1.056.93-1.332 1.602v-.27c0-1.764.303-3.129.909-4.095s1.455-1.449 2.547-1.449c.564 0 1.119.117 1.665.351s1.119.603 1.719 1.107l.558-1.134c-.528-.504-1.14-.891-1.836-1.161s-1.41-.405-2.142-.405c-1.02 0-1.896.267-2.628.801s-1.293 1.311-1.683 2.331-.585 2.244-.585 3.672c0 1.98.417 3.504 1.251 4.572s2.019 1.602 3.555 1.602zm-.072-1.242c-.84 0-1.521-.261-2.043-.783s-.783-1.203-.783-2.043c0-.828.261-1.503.783-2.025s1.197-.783 2.025-.783c.816 0 1.473.258 1.971.774s.747 1.194.747 2.034c0 .852-.246 1.536-.738 2.052s-1.146.774-1.962.774z"/><path d="m8.42430458 2c1.1045695 0 2.00000002.8954305 2.00000002 2 0 1.0543618-.81587781 1.91816512-1.85073767 1.99451426l-.14926235.00548574h-8c-1.1045695 0-2-.8954305-2-2 0-1.0543618.81587779-1.91816512 1.85073766-1.99451426l.14926234-.00548574z" transform="matrix(0 -1 1 0 .424305 8.424305)"/></g><g fill="#fff" transform="translate(183.095 404.834)"><path d="m8.514 34v-1.242h-6.264l3.6-3.906c.756-.828 1.299-1.578 1.629-2.25s.495-1.374.495-2.106c0-1.02-.339-1.83-1.017-2.43s-1.599-.9-2.763-.9c-.768 0-1.533.141-2.295.423s-1.395.663-1.899 1.143l.558 1.134c1.176-.972 2.376-1.458 3.6-1.458.744 0 1.32.186 1.728.558s.612.906.612 1.602c0 .54-.135 1.077-.405 1.611s-.705 1.137-1.305 1.809l-4.446 4.896v1.116z"/><path d="m8.25330458 2c1.1045695 0 2.00000002.8954305 2.00000002 2 0 1.0543618-.81587781 1.91816512-1.85073767 1.99451426l-.14926235.00548574h-8c-1.1045695 0-2-.8954305-2-2 0-1.0543618.81587779-1.91816512 1.85073766-1.99451426l.14926234-.00548574z" transform="matrix(0 -1 1 0 .253305 8.253305)"/></g><g fill="#fff" transform="translate(443.113 404.834)"><path d="m2.448 34 5.94-11.592v-1.098h-8.388v1.242h6.768l-5.922 11.448z"/><path d="m8.23530458 2c1.1045695 0 2.00000002.8954305 2.00000002 2 0 1.0543618-.81587781 1.91816512-1.85073767 1.99451426l-.14926235.00548574h-8c-1.1045695 0-2-.8954305-2-2 0-1.0543618.81587779-1.91816512 1.85073766-1.99451426l.14926234-.00548574z" transform="matrix(0 -1 1 0 .235305 8.235305)"/></g><g fill="#fff" transform="translate(234.915 404.834)"><path d="m4.266 34.126c1.284 0 2.301-.318 3.051-.954s1.125-1.506 1.125-2.61c0-.792-.198-1.449-.594-1.971s-.966-.891-1.71-1.107c.636-.24 1.131-.633 1.485-1.179s.531-1.185.531-1.917c0-.984-.339-1.767-1.017-2.349s-1.593-.873-2.745-.873c-.804 0-1.578.138-2.322.414s-1.374.66-1.89 1.152l.558 1.134c1.176-.972 2.376-1.458 3.6-1.458.756 0 1.338.183 1.746.549s.612.891.612 1.575c0 .78-.252 1.377-.756 1.791s-1.224.621-2.16.621h-1.17v1.242h1.458c1.944 0 2.916.774 2.916 2.322 0 .78-.234 1.371-.702 1.773s-1.152.603-2.052.603c-1.296 0-2.52-.486-3.672-1.458l-.558 1.134c.516.492 1.152.876 1.908 1.152s1.542.414 2.358.414z"/><path d="m8.392 2c1.1045695 0 2 .8954305 2 2 0 1.0543618-.81587779 1.91816512-1.85073766 1.99451426l-.14926234.00548574h-8c-1.1045695 0-2-.8954305-2-2 0-1.0543618.81587779-1.91816512 1.85073766-1.99451426l.14926234-.00548574z" transform="matrix(0 -1 1 0 .392 8.392)"/></g><g fill="#fff" transform="translate(494.753 404.834)"><path d="m4.554 34.126c1.452 0 2.574-.309 3.366-.927s1.188-1.473 1.188-2.565c0-.768-.207-1.428-.621-1.98s-.993-.942-1.737-1.17c.624-.228 1.122-.603 1.494-1.125s.558-1.131.558-1.827c0-1.032-.375-1.851-1.125-2.457s-1.791-.909-3.123-.909-2.373.303-3.123.909-1.125 1.425-1.125 2.457c0 .696.186 1.302.558 1.818s.876.894 1.512 1.134c-.744.216-1.326.6-1.746 1.152s-.63 1.218-.63 1.998c0 1.092.396 1.947 1.188 2.565s1.914.927 3.366.927zm0-7.182c-.912 0-1.605-.198-2.079-.594s-.711-.966-.711-1.71c0-.708.237-1.26.711-1.656s1.167-.594 2.079-.594 1.605.198 2.079.594.711.948.711 1.656c0 .744-.237 1.314-.711 1.71s-1.167.594-2.079.594zm0 5.958c-2.064 0-3.096-.786-3.096-2.358s1.032-2.358 3.096-2.358 3.096.786 3.096 2.358-1.032 2.358-3.096 2.358z"/><path d="m8.554 2c1.1045695 0 2 .8954305 2 2 0 1.0543618-.81587779 1.91816512-1.85073766 1.99451426l-.14926234.00548574h-8c-1.1045695 0-2-.8954305-2-2 0-1.0543618.81587779-1.91816512 1.85073766-1.99451426l.14926234-.00548574z" transform="matrix(0 -1 1 0 .554 8.554)"/></g><g fill="#fff" transform="translate(341.329 404.834)"><path d="m4.176 34.126c.864 0 1.62-.171 2.268-.513s1.149-.819 1.503-1.431.531-1.32.531-2.124c0-.792-.162-1.491-.486-2.097s-.783-1.077-1.377-1.413-1.293-.504-2.097-.504c-.54 0-1.041.087-1.503.261s-.861.423-1.197.747v-4.518h6.156v-1.224h-7.614v7.434h1.026c.72-.984 1.686-1.476 2.898-1.476.828 0 1.491.258 1.989.774s.747 1.194.747 2.034c0 .864-.252 1.548-.756 2.052s-1.2.756-2.088.756c-1.236 0-2.442-.486-3.618-1.458l-.558 1.134c.516.48 1.149.861 1.899 1.143s1.509.423 2.277.423z"/><path d="m8.01930458 2c1.1045695 0 2.00000002.8954305 2.00000002 2 0 1.0543618-.81587781 1.91816512-1.85073767 1.99451426l-.14926235.00548574h-8c-1.1045695 0-2-.8954305-2-2 0-1.0543618.81587779-1.91816512 1.85073766-1.99451426l.14926234-.00548574z" transform="matrix(0 -1 1 0 .019305 8.019305)"/></g><g fill="#fff" transform="translate(598.721 404.834)"><path d="m7.182 34v-1.242h-2.79v-11.448h-1.062l-3.33 2.106.684 1.134 2.232-1.404v9.612h-2.79v1.242zm6.804.144c1.452 0 2.556-.552 3.312-1.656s1.134-2.718 1.134-4.842-.378-3.735-1.134-4.833-1.86-1.647-3.312-1.647-2.556.552-3.312 1.656-1.134 2.718-1.134 4.842c0 2.112.378 3.72 1.134 4.824s1.86 1.656 3.312 1.656zm0-1.242c-1.008 0-1.752-.426-2.232-1.278s-.72-2.178-.72-3.978.24-3.12.72-3.96 1.224-1.26 2.232-1.26c1.02 0 1.767.417 2.241 1.251s.711 2.157.711 3.969c0 1.8-.24 3.126-.72 3.978s-1.224 1.278-2.232 1.278z"/><path d="m12.6273046 2c1.1045695 0 2 .8954305 2 2 0 1.0543618-.8158778 1.91816512-1.8507377 1.99451426l-.1492623.00548574h-8.00000002c-1.1045695 0-2-.8954305-2-2 0-1.0543618.81587779-1.91816512 1.85073766-1.99451426l.14926234-.00548574z" transform="matrix(0 -1 1 0 4.627305 12.627305)"/></g><g fill="#fff" transform="translate(288.825 404.834)"><path d="m7.326 34v-2.754h1.908v-1.224h-1.908v-8.712h-1.206l-6.12 8.82v1.116h5.868v2.754zm-1.458-3.978h-4.338l4.338-6.246z"/><path d="m8.52330458 2c1.1045695 0 2.00000002.8954305 2.00000002 2 0 1.0543618-.81587781 1.91816512-1.85073767 1.99451426l-.14926235.00548574h-8c-1.1045695 0-2-.8954305-2-2 0-1.0543618.81587779-1.91816512 1.85073766-1.99451426l.14926234-.00548574z" transform="matrix(0 -1 1 0 .523305 8.523305)"/></g><g fill="#fff" transform="translate(548.825 404.834)"><path d="m4.176 28.042c-.816 0-1.473-.255-1.971-.765s-.747-1.191-.747-2.043.246-1.536.738-2.052 1.146-.774 1.962-.774c.84 0 1.521.261 2.043.783s.783 1.203.783 2.043c0 .828-.261 1.503-.783 2.025s-1.197.783-2.025.783zm3.221-.917.001.233c0 1.764-.3 3.129-.9 4.095s-1.446 1.449-2.538 1.449c-.564 0-1.119-.117-1.665-.351s-1.119-.603-1.719-1.107l-.558 1.134c.528.504 1.14.891 1.836 1.161s1.404.405 2.124.405c1.548 0 2.754-.597 3.618-1.791s1.296-2.865 1.296-5.013c0-1.98-.417-3.504-1.251-4.572s-2.019-1.602-3.555-1.602c-.78 0-1.482.174-2.106.522s-1.11.834-1.458 1.458-.522 1.326-.522 2.106c0 .792.168 1.494.504 2.106s.804 1.086 1.404 1.422 1.284.504 2.052.504c.78 0 1.479-.192 2.097-.576s1.065-.912 1.341-1.584z"/><path d="m8.52330458 2c1.1045695 0 2.00000002.8954305 2.00000002 2 0 1.0543618-.81587781 1.91816512-1.85073767 1.99451426l-.14926235.00548574h-8c-1.1045695 0-2-.8954305-2-2 0-1.0543618.81587779-1.91816512 1.85073766-1.99451426l.14926234-.00548574z" transform="matrix(0 -1 1 0 .523305 8.523305)"/></g><path d="m635.307.834c3.313708 0 6 2.6862915 6 6v392c0 3.313708-2.686292 6-6 6h-576c-3.3137085 0-6-2.686292-6-6v-392c0-3.3137085 2.6862915-6 6-6zm0 2h-576c-2.1421954 0-3.8910789 1.68396847-4 3.80035966v.19964034 392c0 2.142195 1.6839685 3.891079 3.8003597 3.995105l.1996403.004895h576c2.142195 0 3.891079-1.683968 4-3.80036v-.19964-392c0-2.14219539-1.683968-3.89107888-3.80036-3.99510469z" fill="#fff"/><path d="m95.307 378.834h-16c-2.7614237 0-5 2.238576-5 5v19h26v-19c0-2.761424-2.2385763-5-5-5zm0 2 .1762728.005093c1.5748072.091246 2.8237272 1.397226 2.8237272 2.994907l-.001 17h-22l.001-17c0-1.656854 1.3431458-3 3-3z" fill="#ff8c00"/><path d="m145.307 358.834h-16c-2.761424 0-5 2.238576-5 5v39h26v-39c0-2.761424-2.238576-5-5-5zm0 2 .176273.005093c1.574807.091246 2.823727 1.397226 2.823727 2.994907l-.001 37h-22l.001-37c0-1.656854 1.343146-3 3-3z" fill="#ff8c00"/><path d="m195.307 318.834h-16c-2.761424 0-5 2.238576-5 5v79h26v-79c0-2.761424-2.238576-5-5-5zm0 2 .176273.005093c1.574807.091246 2.823727 1.397226 2.823727 2.994907l-.001 77h-22l.001-77c0-1.656854 1.343146-3 3-3z" fill="#ff8c00"/><path d="m247.307 200.834h-16c-2.761424 0-5 2.238576-5 5v197h26v-197c0-2.761424-2.238576-5-5-5zm0 2 .176273.005093c1.574807.091246 2.823727 1.397226 2.823727 2.994907l-.001 195h-22l.001-195c0-1.656854 1.343146-3 3-3z" fill="#ff8c00"/><path d="m301.307 70.834h-16c-2.761424 0-5 2.2385763-5 5v327h26v-327c0-2.7614237-2.238576-5-5-5zm0 2 .176273.0050927c1.574807.0912464 2.823727 1.3972264 2.823727 2.9949073l-.001 325h-22l.001-325c0-1.6568542 1.343146-3 3-3z" fill="#ff8c00"/><path d="m353.307 16.834h-16c-2.761424 0-5 2.2385763-5 5v381h26v-381c0-2.7614237-2.238576-5-5-5zm0 2 .176273.0050927c1.574807.0912464 2.823727 1.3972264 2.823727 2.9949073l-.001 379h-22l.001-379c0-1.6568542 1.343146-3 3-3z" fill="#ff8c00"/><path d="m405.307 70.834h-16c-2.761424 0-5 2.2385763-5 5v327h26v-327c0-2.7614237-2.238576-5-5-5zm0 2 .176273.0050927c1.574807.0912464 2.823727 1.3972264 2.823727 2.9949073l-.001 325h-22l.001-325c0-1.6568542 1.343146-3 3-3z" fill="#ff8c00"/></g><path d="m79.307 379.834h16c2.209139 0 4 1.790861 4 4v18h-24v-18c0-2.209139 1.790861-4 4-4z" fill="#222f4f"/><path d="m129.307 359.834h16c2.209139 0 4 1.790861 4 4v38h-24v-38c0-2.209139 1.790861-4 4-4z" fill="#222f4f"/><path d="m179.307 319.834h16c2.209139 0 4 1.790861 4 4v78h-24v-78c0-2.209139 1.790861-4 4-4z" fill="#222f4f"/><path d="m231.307 201.834h16c2.209139 0 4 1.790861 4 4v196h-24v-196c0-2.209139 1.790861-4 4-4z" fill="#222f4f"/><path d="m285.307 71.834h16c2.209139 0 4 1.790861 4 4v326h-24v-326c0-2.209139 1.790861-4 4-4z" fill="#222f4f"/><path d="m337.307 17.834h16c2.209139 0 4 1.790861 4 4v380h-24v-380c0-2.209139 1.790861-4 4-4z" fill="#222f4f"/><path d="m389.307 71.834h16c2.209139 0 4 1.790861 4 4v326h-24v-326c0-2.209139 1.790861-4 4-4z" fill="#222f4f"/></g></g></svg>